<svg width="1534" height="305" viewBox="0 0 1534 305" fill="none" xmlns="http://www.w3.org/2000/svg">
<path fill-rule="evenodd" clip-rule="evenodd" d="M1534 0H0V577H1534V0ZM1366.97 97.0211C1366.97 74.7121 1389.07 60.0351 1423.56 60.0351C1443.31 60.0351 1461.87 64.7317 1477.79 72.3638L1482.21 61.5028C1464.82 52.9902 1444.19 48 1423.26 48C1381.12 48 1354.89 67.0801 1354.89 97.6082C1354.89 131.855 1388.96 143.687 1421.77 155.081C1452.24 165.661 1481.62 175.864 1481.62 203.282C1481.62 228.82 1456.57 244.965 1419.73 244.965C1398.8 244.965 1379.05 239.681 1359.9 229.407L1355.18 240.268C1374.93 250.836 1397.33 257 1420.32 257C1463.64 257 1494 235.865 1494 202.695C1494 167.203 1458.59 154.706 1425.16 142.909C1395.27 132.363 1366.97 122.376 1366.97 97.0211ZM51 49.7612V255.239H156.515C190.409 255.239 217.23 231.169 217.23 200.64C217.23 175.103 198.367 154.555 172.136 148.39C193.357 140.465 208.093 122.559 208.093 101.131C208.093 72.3638 181.272 49.7612 147.378 49.7612H51ZM147.378 144.281H63.3788V61.2093H147.378C174.494 61.2093 195.42 79.4087 195.42 102.598C195.42 126.081 174.494 144.281 147.378 144.281ZM156.515 243.791H63.3788V155.435H156.515C183.63 155.435 204.556 174.809 204.556 199.466C204.556 224.124 183.63 243.791 156.515 243.791ZM266.582 49.7612V255.239H408.939V243.791H278.961V157.197H397.149V145.749H278.961V61.2093H408.939V49.7612H266.582ZM460.001 255.239V49.7612H472.38L621.81 235.572V49.7612H634.189V255.239H621.81L472.38 69.4284V255.239H460.001ZM699.761 49.7612V255.239H842.117V243.791H712.139V157.197H830.328V145.749H712.139V61.2093H842.117V49.7612H699.761ZM893.18 255.239V49.7612H1034.06V61.2093H905.559V146.042H1022.27V157.784H905.559V255.239H893.18ZM1080.55 49.7612V255.239H1092.93V49.7612H1080.55ZM1224.58 255.239V61.2093H1134.98V49.7612H1326.56V61.2093H1236.96V255.239H1224.58Z" fill="white"/>
</svg>
