<svg width="1432" height="233" viewBox="0 0 1432 233" fill="none" xmlns="http://www.w3.org/2000/svg">
<path d="M0 231.036V1.96348H13.723V108.973H179.38V1.96348H193.103V231.036H179.38V121.736H13.723V231.036H0Z" fill="white"/>
<path d="M265.795 231.036V1.96348H279.518V231.036H265.795Z" fill="white"/>
<path d="M415.987 13.4171C377.759 13.4171 353.253 29.7795 353.253 54.6503C353.253 114.537 494.078 97.5197 494.078 172.459C494.078 209.438 460.424 233 412.393 233C386.907 233 362.075 226.128 340.184 214.347L345.412 202.239C366.65 213.692 388.541 219.583 411.74 219.583C452.582 219.583 480.355 201.584 480.355 173.114C480.355 109.628 339.857 128.935 339.857 55.3048C339.857 21.2711 368.937 0 415.66 0C438.859 0 461.731 5.56321 481.008 15.0534L476.107 27.1615C458.463 18.6531 437.879 13.4171 415.987 13.4171Z" fill="white"/>
<path d="M621.059 231.036V14.7261H521.731V1.96348H734.111V14.7261H634.782V231.036H621.059Z" fill="white"/>
<path d="M752.998 116.5C752.998 51.3778 803.969 0 869.317 0C934.338 0 985.31 51.3778 985.31 116.5C985.31 181.622 934.338 233 869.317 233C803.969 233 752.998 181.622 752.998 116.5ZM766.721 116.5C766.721 174.423 811.811 219.583 869.317 219.583C926.497 219.583 971.586 174.423 971.586 116.5C971.586 58.5772 926.497 13.4171 869.317 13.4171C811.811 13.4171 766.721 58.5772 766.721 116.5Z" fill="white"/>
<path d="M1042.76 231.036V1.96348H1138.16C1180.64 1.96348 1213.97 31.4157 1213.97 69.0492C1213.97 99.4832 1192.08 124.354 1161.69 133.19L1212.99 231.036H1197.96L1148.62 135.48C1145.35 136.135 1141.76 136.135 1138.16 136.135H1056.48V231.036H1042.76ZM1056.48 123.372H1138.16C1172.8 123.372 1199.92 99.4832 1199.92 69.0492C1199.92 38.6152 1172.8 14.7261 1138.16 14.7261H1056.48V123.372Z" fill="white"/>
<path d="M1232.04 1.96348H1247.72L1332.02 122.718L1415.99 1.96348H1432L1338.88 135.48V231.036H1325.16V135.48L1232.04 1.96348Z" fill="white"/>
</svg>
