<svg width="454" height="84" viewBox="0 0 454 84" fill="none" xmlns="http://www.w3.org/2000/svg">
<path d="M58.8693 61.1269C58.8693 74.2379 48.1895 83.5285 31.3449 83.5285C14.5003 83.5285 3.99408 73.9774 3.99408 73.9774L0 53.1387L1.47607 52.8782C8.50914 71.0252 19.0153 82.3129 32.5605 82.3129C43.5876 82.3129 51.5758 75.0193 51.5758 65.0341C51.489 41.2433 2.34435 49.2314 2.34435 21.4465C2.34435 9.11693 13.9793 0 30.1293 0C37.9438 0 47.1476 3.7336 53.486 6.94623L57.4801 27.7849L56.004 28.0454C48.8841 12.0691 40.4618 1.30242 28.1322 1.30242C17.5392 1.30242 9.72473 8.76962 9.72473 17.8866C9.72473 40.2013 58.8693 32.4736 58.8693 61.04V61.1269Z" fill="white"/>
<path d="M86.3068 38.6378L120.778 8.24801C122.688 6.25096 121.298 2.9515 118.52 2.9515V1.56226H138.664V3.03833C137.622 3.03833 136.58 3.47247 135.712 4.16709L91.8638 37.9432C90.2141 39.2456 91.0824 41.8504 93.1662 41.8504H100.112L141.703 79.4469C142.485 80.1415 143.526 80.5757 144.568 80.5757V82.0517H124.424V80.5757C126.248 80.5757 127.376 79.0996 127.376 77.6235C127.376 76.8421 127.116 76.0606 126.421 75.4528L92.4716 44.7157C91.4297 43.7606 89.9536 43.2397 88.5644 43.2397C85.3517 43.2397 82.6601 45.8445 82.6601 49.144V71.4587C82.6601 76.4948 86.741 80.5757 91.777 80.5757V82.0517H65.034V80.5757C70.1568 80.5757 74.2378 76.4079 74.2378 71.3719V12.1553C74.2378 7.11924 70.1568 2.9515 65.034 2.9515V1.56226H91.777V3.03833C89.259 3.03833 86.9146 4.08027 85.2649 5.73C83.6152 7.37973 82.5732 9.72408 82.5732 12.2421V37.0749C82.5732 38.9851 84.8308 39.9402 86.22 38.7246L86.3068 38.6378Z" fill="white"/>
<path d="M224.103 80.4888V81.9649H195.797V80.4888C201.18 80.4888 204.914 75.1055 203.004 70.1563L194.234 46.6259C193.105 43.5001 189.111 42.6319 186.767 44.9762L160.024 71.7192C159.069 72.6743 158.548 73.9767 158.548 75.2792C158.548 76.8421 159.242 78.405 160.632 79.3601C161.153 79.7074 161.76 80.0547 162.368 80.2283C162.976 80.402 163.671 80.4888 164.278 80.4888V81.9649H144.568V80.4888C148.736 80.4888 152.557 77.884 153.946 73.8899L176.695 11.808C176.955 11.0265 177.129 10.245 177.129 9.55042C177.129 6.07731 174.264 2.9515 170.53 2.9515V1.56226H188.243L215.246 74.3241C215.941 76.1474 217.157 77.7103 218.719 78.8391C220.282 79.881 222.193 80.5757 224.103 80.5757V80.4888ZM189.632 34.2964L179.734 7.81387L158.635 65.2071C157.853 67.291 160.458 68.9407 162.108 67.3778L188.069 41.4163C189.979 39.5061 190.587 36.7276 189.632 34.2964Z" fill="white"/>
<path d="M295.562 2.9515C290.439 2.9515 286.272 7.11924 286.272 12.2421V54.0932C286.272 62.1682 282.972 69.5485 277.676 74.845C272.379 80.1415 264.999 83.441 256.924 83.441C239.124 83.441 224.711 69.0276 224.711 51.2278V12.2421C224.711 7.11924 220.543 2.9515 215.42 2.9515V1.56226H242.424V3.03833C237.301 3.03833 233.133 7.20607 233.133 12.3289V51.3147C233.133 64.4257 243.726 75.0187 256.837 75.0187H261.092C274.203 75.0187 284.796 64.4257 284.796 51.3147V12.2421C284.796 7.11924 280.628 2.9515 275.505 2.9515V1.56226H295.475V3.03833L295.562 2.9515Z" fill="white"/>
<path d="M364.504 12.2421V71.2851C364.504 76.4079 368.671 80.5757 373.794 80.5757V82.0517H352.348L311.104 9.11628C310.497 8.07435 309.194 7.55338 307.979 7.98752C306.937 8.33483 306.329 9.37677 306.329 10.5055V71.3719C306.329 76.4079 310.41 80.4888 315.446 80.4888V81.9649H295.649V80.4888C300.685 80.4888 304.766 76.4079 304.766 71.3719V12.2421C304.766 7.11924 300.598 3.03833 295.562 3.03833V1.56226H317.009L358.165 74.4109C358.599 75.1923 359.468 75.7133 360.423 75.7133C361.117 75.7133 361.812 75.4528 362.246 74.9319C362.68 74.4977 363.028 73.8031 363.028 73.1085V12.2421C363.028 7.11924 358.86 3.03833 353.824 3.03833V1.56226H373.707V3.03833C368.585 3.03833 364.504 7.20607 364.504 12.2421Z" fill="white"/>
<path d="M453.329 80.4888V81.9649H425.023V80.4888C430.406 80.4888 434.14 75.1055 432.229 70.1563L423.46 46.6259C422.331 43.5001 418.337 42.6319 415.993 44.9762L389.25 71.7192C388.294 72.6743 387.773 73.9767 387.773 75.2792C387.773 76.8421 388.468 78.405 389.857 79.3601C390.378 79.7074 390.986 80.0547 391.594 80.2283C392.202 80.402 392.896 80.4888 393.504 80.4888V81.9649H373.794V80.4888C377.962 80.4888 381.782 77.884 383.172 73.8899L405.92 11.808C406.181 11.0265 406.355 10.245 406.355 9.55042C406.355 6.07731 403.489 2.9515 399.756 2.9515V1.56226H417.469L444.472 74.3241C445.167 76.1474 446.382 77.7103 447.945 78.8391C449.508 79.881 451.418 80.5757 453.329 80.5757V80.4888ZM418.858 34.2964L408.959 7.81387L387.86 65.2071C387.079 67.291 389.684 68.9407 391.333 67.3778L417.295 41.4163C419.205 39.5061 419.813 36.7276 418.858 34.2964Z" fill="white"/>
</svg>
