<svg width="1440" height="424" viewBox="0 0 1440 424" fill="none" xmlns="http://www.w3.org/2000/svg">
<path fill-rule="evenodd" clip-rule="evenodd" d="M1440 0H0V194.573C8.34349 122.528 67.943 68 142.803 68C223.188 68 286.203 131.506 286.203 212C286.203 292.494 223.188 356 142.803 356C67.943 356 8.34349 301.472 0 229.427V2214H1440V0ZM15.9655 212C15.9655 283.596 71.7095 339.416 142.803 339.416C213.493 339.416 269.237 283.596 269.237 212C269.237 140.404 213.493 84.5843 142.803 84.5843C71.7095 84.5843 15.9655 140.404 15.9655 212ZM357.224 70.427H475.175C527.687 70.427 568.89 106.831 568.89 153.348C568.89 190.966 541.825 221.708 504.259 232.629L567.678 353.573H549.096L488.101 235.461C484.062 236.27 479.618 236.27 475.175 236.27H374.189V353.573H357.224V70.427ZM374.189 220.494H475.175C517.993 220.494 551.52 190.966 551.52 153.348C551.52 115.73 517.993 86.2022 475.175 86.2022H374.189V220.494ZM732.123 70.427H641.64V353.573H732.123C816.951 353.573 884.005 291.281 884.005 212C884.005 132.719 817.355 70.427 732.123 70.427ZM731.315 337.798H658.606V86.2022H731.315C807.256 86.2022 867.04 141.618 867.04 212C867.04 282.382 807.256 337.798 731.315 337.798ZM955.247 70.427H1150.35V86.2022H972.213V202.697H1134.19V218.472H972.213V337.798H1150.35V353.573H955.247V70.427ZM1338.29 70.427H1220.33V353.573H1237.3V236.27H1338.29C1342.73 236.27 1347.17 236.27 1351.21 235.461L1412.21 353.573H1430.79L1367.37 232.629C1404.94 221.708 1432 190.966 1432 153.348C1432 106.831 1390.8 70.427 1338.29 70.427ZM1338.29 220.494H1237.3V86.2022H1338.29C1381.1 86.2022 1414.63 115.73 1414.63 153.348C1414.63 190.966 1381.1 220.494 1338.29 220.494Z" fill="white"/>
</svg>
