<svg width="85" height="82" viewBox="0 0 85 82" fill="none" xmlns="http://www.w3.org/2000/svg">
<path d="M84.9013 38.9606C84.6559 40.1827 84.4871 41.4207 84.1599 42.6164C82.0329 50.2772 77.3954 55.6048 70.2218 58.5464C69.9406 58.6628 69.6645 58.7792 69.3475 58.9114C69.3475 60.779 69.3577 62.636 69.3475 64.493C69.3373 66.4241 68.5243 67.9636 67.0518 69.1064C66.6427 69.4238 66.5149 69.736 66.52 70.2333C66.5405 72.6881 66.5456 75.1483 66.52 77.6031C66.4996 79.8675 64.9247 81.7086 62.8386 81.9679C60.6758 82.2324 58.692 80.841 58.1653 78.6454C58.0528 78.1851 58.0528 77.6825 58.0528 77.201C58.0426 74.889 58.0375 72.5718 58.0528 70.2598C58.0528 69.7677 57.9608 69.4397 57.5415 69.117C56.0639 67.9848 55.2458 66.4505 55.2305 64.5142C55.2151 62.8582 55.1998 61.2023 55.2305 59.5463C55.2407 59.0384 55.0771 58.8162 54.6118 58.631C46.4054 55.3244 41.364 49.1767 39.9476 40.2144C38.1018 28.5381 44.9277 17.6394 55.5219 14.3011C68.6163 10.1797 81.6648 18.2479 84.5025 32.0828C84.6559 32.8288 84.7735 33.5853 84.9064 34.3313V38.9606H84.9013ZM42.6678 38.0982C43.0717 48.2826 51.7894 56.6629 60.7832 56.8957C60.8036 56.8428 60.8497 56.7952 60.8497 56.7423C60.8599 55.9434 60.8548 55.1445 60.8701 54.3456C60.8855 53.3563 61.4632 52.6897 62.2813 52.6897C63.0994 52.6897 63.6823 53.3669 63.6925 54.3456C63.7027 55.1974 63.6925 56.0492 63.6925 57.0068C68.8209 56.5412 73.1056 54.4673 76.5875 50.6845C79.8036 47.1874 81.583 43.0026 81.9613 38.0982C81.041 38.0982 80.2433 38.1035 79.4457 38.0982C78.4896 38.0876 77.8351 37.5162 77.8044 36.675C77.7738 35.8074 78.4384 35.1884 79.4457 35.1725C80.2638 35.1566 81.0768 35.1725 81.8948 35.1725C81.4602 24.5754 72.313 16.4914 63.6925 16.3856C63.6925 17.2056 63.6925 18.0309 63.6925 18.851C63.6874 19.8879 63.0943 20.5916 62.2557 20.5704C61.4428 20.5546 60.8803 19.8827 60.8701 18.8827C60.8599 18.0362 60.8701 17.1897 60.8701 16.3379C50.7975 16.7506 42.8058 26.1203 42.7189 35.1672C43.5677 35.1672 44.4164 35.1513 45.2652 35.1672C46.1446 35.1937 46.7838 35.8391 46.7633 36.6486C46.7428 37.4633 46.1037 38.0717 45.2141 38.0876C44.3909 38.1035 43.5677 38.0876 42.6678 38.0876V38.0982ZM58.0682 59.8637C58.0682 61.4192 57.9966 63.1016 58.0886 64.7734C58.1653 66.1754 59.3106 67.2177 60.6861 67.2811C61.7291 67.3288 62.7824 67.3288 63.8254 67.2811C65.1957 67.2229 66.3104 66.313 66.428 64.8951C66.5711 63.1809 66.4638 61.4403 66.4638 59.8637H58.0682ZM63.6874 70.3762H60.8803C60.8803 72.8098 60.865 75.1747 60.8906 77.5396C60.9008 78.402 61.5501 79.0369 62.2966 79.0263C63.0125 79.0157 63.6618 78.4179 63.6772 77.5925C63.713 75.2012 63.6925 72.8098 63.6925 70.3709L63.6874 70.3762Z" fill="#003952"/>
<path d="M36.1641 7.85694C38.0764 5.7407 40.2034 3.97893 42.6832 2.73564C48.5632 -0.232393 54.6016 -1.05244 60.8037 1.61403C64.071 3.01604 66.6581 5.32803 68.6369 8.36484C69.2044 9.23249 69.1022 10.1266 68.4017 10.6292C67.6961 11.1318 66.8575 10.9149 66.2798 10.0367C63.7182 6.1904 60.2157 3.79905 55.7521 3.19063C50.4141 2.46052 45.5005 3.84137 41.1953 7.19561C39.8199 8.2696 38.6439 9.624 37.4475 10.9202C36.5016 11.9413 35.709 12.0101 34.8347 10.9096C31.6749 6.9205 27.656 4.4445 22.7731 3.3758C13.2782 1.30717 4.65769 7.4284 3.19537 17.253C2.3057 23.2261 3.88051 28.5379 6.96877 33.4846C10.1593 38.5848 14.398 42.6585 18.9741 46.3831C24.1894 50.6262 29.8035 54.2396 35.5914 57.5727C35.8624 57.7262 36.3431 57.7314 36.6192 57.5833C37.7185 56.996 38.7769 56.3189 39.8557 55.684C40.7658 55.1496 41.5788 55.2872 42.0287 56.0437C42.5042 56.832 42.2384 57.668 41.2976 58.2499C40.0909 58.9906 38.8638 59.7048 37.6469 60.4296C36.6856 61.001 35.6937 61.0539 34.7325 60.4931C26.296 55.594 18.1458 50.2558 11.1614 43.2352C7.2551 39.3096 3.83961 34.9766 1.84042 29.6595C-1.04844 22.004 -0.705865 14.576 4.07992 7.81461C8.28282 1.87327 14.1526 -0.549829 21.2188 0.180274C26.9914 0.778112 31.8641 3.30702 35.8829 7.62944C35.9391 7.68764 36.0107 7.73525 36.159 7.85694H36.1641Z" fill="#003952"/>
<path d="M5.7211 19.9356C5.82336 14.0154 9.34623 8.51845 14.3468 6.71964C15.7017 6.23291 17.1845 6.09006 18.6264 5.91547C19.5569 5.80437 20.2318 6.50273 20.2574 7.34393C20.2779 8.14281 19.6848 8.80414 18.7644 8.83588C15.671 8.94699 13.0838 10.1215 11.1562 12.6716C9.70925 14.5815 8.90651 16.7665 8.68154 19.179C8.64063 19.634 8.61507 20.089 8.56905 20.544C8.4719 21.5175 7.92481 22.073 7.10673 22.0465C6.28864 22.0201 5.75178 21.4064 5.72621 20.454C5.72621 20.2847 5.72621 20.1102 5.72621 19.9409L5.7211 19.9356Z" fill="#003952"/>
<path d="M42.6678 38.1035C43.5625 38.1035 44.3908 38.1141 45.214 38.1035C46.0986 38.0877 46.7428 37.474 46.7633 36.6645C46.7837 35.855 46.1446 35.2096 45.2652 35.1831C44.4164 35.162 43.5676 35.1831 42.7189 35.1831C42.8109 26.1309 50.7975 16.7665 60.8701 16.3539C60.8701 17.2004 60.8599 18.0469 60.8701 18.8987C60.8803 19.8986 61.4428 20.5705 62.2557 20.5864C63.0943 20.6022 63.6823 19.9039 63.6925 18.8669C63.6976 18.0469 63.6925 17.2215 63.6925 16.4015C72.313 16.5126 81.4551 24.5913 81.8948 35.1884C81.0767 35.1884 80.2638 35.1778 79.4457 35.1884C78.4384 35.2043 77.7686 35.8233 77.8044 36.691C77.8351 37.5322 78.4896 38.1088 79.4457 38.1141C80.2433 38.1247 81.0358 38.1141 81.9613 38.1141C81.5829 43.0238 79.8087 47.2034 76.5875 50.7005C73.1107 54.4832 68.8208 56.5572 63.6925 57.0227C63.6925 56.0651 63.6976 55.2134 63.6925 54.3616C63.6823 53.3828 63.0994 52.7056 62.2813 52.7056C61.4632 52.7056 60.8906 53.3722 60.8701 54.3616C60.8548 55.1604 60.8599 55.9593 60.8496 56.7582C60.8496 56.8111 60.8087 56.8587 60.7832 56.9116C51.7843 56.6789 43.0717 48.2985 42.6678 38.1141V38.1035ZM67.1745 33.6594C68.964 31.813 70.7229 29.9983 72.4766 28.1837C73.1976 27.4377 73.939 26.7076 74.6241 25.9299C75.1559 25.3215 75.1047 24.4644 74.5832 23.9194C74.0668 23.3798 73.2436 23.3375 72.6352 23.8454C72.4204 24.0253 72.2363 24.2369 72.042 24.4379C69.7514 26.824 67.4608 29.21 65.1906 31.5749C61.8058 29.7444 58.9067 31.3633 57.6284 33.2891C56.0639 35.6434 56.34 38.8019 58.2982 40.807C60.231 42.7857 63.2732 43.0503 65.5025 41.4737C67.4352 40.1034 68.9078 37.0137 67.1796 33.6647L67.1745 33.6594Z" fill="none"/>
<path d="M67.1745 33.6594C68.9027 37.0136 67.4301 40.0981 65.4974 41.4683C63.2681 43.0502 60.2208 42.7804 58.2931 40.8017C56.3349 38.7966 56.0588 35.6381 57.6233 33.2838C58.9016 31.358 61.8007 29.7391 65.1855 31.5696C67.4557 29.2047 69.7463 26.8186 72.0369 24.4326C72.2312 24.2315 72.4153 24.0146 72.63 23.84C73.2385 23.3321 74.0617 23.3745 74.5781 23.9141C75.0996 24.459 75.1508 25.3161 74.619 25.9245C73.9339 26.7075 73.1925 27.4324 72.4715 28.1783C70.7178 29.993 68.9589 31.8024 67.1693 33.6541L67.1745 33.6594ZM65.0526 36.6168C65.0474 34.9979 63.851 33.7599 62.2864 33.7493C60.7269 33.744 59.5152 34.982 59.5049 36.601C59.4947 38.2675 60.7014 39.5108 62.3171 39.5002C63.8817 39.4896 65.0628 38.2411 65.0577 36.6115L65.0526 36.6168Z" fill="#003952"/>
</svg>
