<svg width="75" height="75" viewBox="0 0 75 75" fill="none" xmlns="http://www.w3.org/2000/svg">
<path d="M56.161 14.4966C54.4028 14.5011 52.8273 16.081 52.8318 17.837C52.8363 19.5952 54.4162 21.1729 56.1722 21.1684C57.9281 21.164 59.5058 19.5818 59.5036 17.8258C59.5014 16.0654 57.9192 14.4899 56.1632 14.4944L56.161 14.4966Z" fill="white"/>
<path d="M73.9838 20.5086C73.9815 19.2874 73.9191 18.0484 73.703 16.8518C71.8868 6.79947 63.7376 0.0184606 53.4847 0.00731866C42.4943 -0.00382332 31.5038 -0.00382332 20.5156 0.0184606C19.2945 0.020689 18.0555 0.0786273 16.8588 0.294782C6.87339 2.08641 0.0322172 10.2602 0.0143901 20.4038C-0.00343711 31.4678 -0.0123507 42.5318 0.0344456 53.5958C0.0411308 55.2136 0.210489 56.8693 0.584859 58.4425C2.77314 67.6592 10.6973 73.921 20.1881 73.9834C25.7947 74.019 31.4013 73.9901 37.008 73.9901C42.4653 73.9901 47.9227 74.0079 53.3822 73.9767C54.6391 73.97 55.9159 73.9187 57.1505 73.6959C67.2094 71.8731 73.9837 63.7283 73.9949 53.4777C74.006 42.4872 74.006 31.4968 73.986 20.5086H73.9838ZM67.3053 54.1217C67.2963 61.3083 61.2997 67.2937 54.102 67.3004C42.7038 67.3116 31.3055 67.3116 19.9073 67.3004C12.714 67.2937 6.71518 61.2993 6.70181 54.1239C6.69066 48.4058 6.70181 42.6878 6.69958 36.9719C6.69958 31.2918 6.69289 25.6116 6.69958 19.9314C6.71072 12.6757 12.6917 6.70365 19.9608 6.69919C31.3211 6.69028 42.6815 6.69028 54.0441 6.69919C61.3176 6.70588 67.2986 12.6713 67.3053 19.9314C67.3164 31.3296 67.3164 42.7279 67.3053 54.1261V54.1217Z" fill="white"/>
<path d="M37.0749 20.2856C27.9273 20.241 20.3196 27.7953 20.2906 36.9518C20.2639 46.0993 27.8382 53.7026 36.9857 53.7115C46.0976 53.7182 53.6474 46.2197 53.7143 37.0966C53.7812 27.9513 46.238 20.3302 37.0749 20.2856ZM36.9924 47.0241C31.4192 47.0241 26.9758 42.5673 26.978 36.9852C26.978 31.4097 31.4303 26.9708 37.0169 26.973C42.5968 26.9752 47.0313 31.4209 47.0291 37.0097C47.0291 42.5852 42.5746 47.0263 36.9924 47.0241Z" fill="white"/>
</svg>
