<svg width="149" height="27" viewBox="0 0 149 27" fill="none" xmlns="http://www.w3.org/2000/svg">
<path d="M19.3492 19.2947C19.3492 23.3035 15.8389 26.1441 10.3024 26.1441C4.76595 26.1441 1.31278 23.2238 1.31278 23.2238L0 16.8523L0.485156 16.7727C2.79678 22.3212 6.24995 25.7724 10.702 25.7724C14.3264 25.7724 16.9519 23.5424 16.9519 20.4894C16.9234 13.2152 0.770542 15.6577 0.770542 7.16232C0.770542 3.39251 4.59471 0.60498 9.90289 0.60498C12.4714 0.60498 15.4965 1.74654 17.5798 2.72882L18.8926 9.10032L18.4074 9.17996C16.0672 4.29514 13.299 1.0032 9.24651 1.0032C5.7648 1.0032 3.19632 3.28632 3.19632 6.07385C3.19632 12.8967 19.3492 10.5339 19.3492 19.2682V19.2947Z" fill="#003952"/>
<path d="M28.3673 12.4185L39.6971 3.12671C40.325 2.51611 39.8684 1.50729 38.9551 1.50729V1.08252H45.5761V1.53383C45.2336 1.53383 44.8912 1.66657 44.6058 1.87896L30.1938 12.2061C29.6516 12.6043 29.9369 13.4008 30.6219 13.4008H32.905L46.575 24.896C46.8318 25.1084 47.1743 25.2411 47.5167 25.2411V25.6925H40.8958V25.2411C41.4951 25.2411 41.8661 24.7898 41.8661 24.3385C41.8661 24.0996 41.7805 23.8606 41.5522 23.6748L30.3936 14.2768C30.0511 13.9848 29.5659 13.8255 29.1093 13.8255C28.0534 13.8255 27.1687 14.622 27.1687 15.6308V22.4536C27.1687 23.9934 28.51 25.2411 30.1653 25.2411V25.6925H21.3754V25.2411C23.0591 25.2411 24.4005 23.9668 24.4005 22.4271V4.32137C24.4005 2.78159 23.0591 1.50729 21.3754 1.50729V1.08252H30.1653V1.53383C29.3376 1.53383 28.5671 1.85241 28.0249 2.35682C27.4826 2.86123 27.1402 3.57803 27.1402 4.34792V11.9406C27.1402 12.5247 27.8822 12.8167 28.3388 12.445L28.3673 12.4185Z" fill="#003952"/>
<path d="M73.6581 25.2146V25.6659H64.3545V25.2146C66.1239 25.2146 67.351 23.5686 66.7232 22.0554L63.8408 14.8609C63.4698 13.9052 62.157 13.6397 61.3865 14.3565L52.5966 22.5332C52.2827 22.8253 52.1114 23.2235 52.1114 23.6217C52.1114 24.0996 52.3397 24.5774 52.7964 24.8695C52.9676 24.9757 53.1674 25.0819 53.3671 25.1349C53.5669 25.188 53.7952 25.2146 53.995 25.2146V25.6659H47.5167V25.2146C48.8866 25.2146 50.1423 24.4182 50.5989 23.1969L58.076 4.21518C58.1616 3.97624 58.2187 3.73731 58.2187 3.52493C58.2187 2.46301 57.2769 1.50729 56.0498 1.50729V1.08252H61.8716L70.7471 23.3297C70.9755 23.8872 71.375 24.3651 71.8887 24.7102C72.4024 25.0288 73.0302 25.2411 73.6581 25.2411V25.2146ZM62.3283 11.0911L59.0749 2.99397L52.14 20.5422C51.8831 21.1793 52.7393 21.6837 53.2815 21.2059L61.8146 13.268C62.4424 12.684 62.6422 11.8344 62.3283 11.0911Z" fill="#003952"/>
<path d="M97.1455 1.50729C95.4617 1.50729 94.0918 2.78159 94.0918 4.34792V17.144C94.0918 19.613 93.0074 21.8696 91.2665 23.489C89.5256 25.1084 87.0999 26.1172 84.4458 26.1172C78.5954 26.1172 73.858 21.7103 73.858 16.2679V4.34792C73.858 2.78159 72.4881 1.50729 70.8043 1.50729V1.08252H79.6798V1.53383C77.996 1.53383 76.6262 2.80814 76.6262 4.37446V16.2945C76.6262 20.3032 80.1079 23.5421 84.4172 23.5421H85.8156C90.125 23.5421 93.6067 20.3032 93.6067 16.2945V4.34792C93.6067 2.78159 92.2368 1.50729 90.553 1.50729V1.08252H97.1169V1.53383L97.1455 1.50729Z" fill="#003952"/>
<path d="M119.805 4.34792V22.4005C119.805 23.9668 121.175 25.2411 122.859 25.2411V25.6925H115.81L102.254 3.39219C102.054 3.07361 101.626 2.91433 101.226 3.04707C100.884 3.15326 100.684 3.47183 100.684 3.81696V22.4271C100.684 23.9668 102.025 25.2146 103.681 25.2146V25.6659H97.1739V25.2146C98.8292 25.2146 100.17 23.9668 100.17 22.4271V4.34792C100.17 2.78159 98.8006 1.53383 97.1454 1.53383V1.08252H104.194L117.722 23.3562C117.864 23.5952 118.15 23.7545 118.464 23.7545C118.692 23.7545 118.92 23.6748 119.063 23.5155C119.206 23.3828 119.32 23.1704 119.32 22.958V4.34792C119.32 2.78159 117.95 1.53383 116.295 1.53383V1.08252H122.83V1.53383C121.146 1.53383 119.805 2.80814 119.805 4.34792Z" fill="#003952"/>
<path d="M149 25.2146V25.6659H139.696V25.2146C141.466 25.2146 142.693 23.5686 142.065 22.0554L139.183 14.8609C138.812 13.9052 137.499 13.6397 136.728 14.3565L127.939 22.5332C127.625 22.8253 127.453 23.2235 127.453 23.6217C127.453 24.0996 127.682 24.5774 128.138 24.8695C128.31 24.9757 128.509 25.0819 128.709 25.1349C128.909 25.188 129.137 25.2146 129.337 25.2146V25.6659H122.859V25.2146C124.228 25.2146 125.484 24.4182 125.941 23.1969L133.418 4.21518C133.504 3.97624 133.561 3.73731 133.561 3.52493C133.561 2.46301 132.619 1.50729 131.392 1.50729V1.08252H137.214L146.089 23.3297C146.317 23.8872 146.717 24.3651 147.231 24.7102C147.744 25.0288 148.372 25.2411 149 25.2411V25.2146ZM137.67 11.0911L134.417 2.99397L127.482 20.5422C127.225 21.1793 128.081 21.6837 128.623 21.2059L137.156 13.268C137.784 12.684 137.984 11.8344 137.67 11.0911Z" fill="#003952"/>
</svg>
