<svg width="1534" height="323" viewBox="0 0 1534 323" fill="none" xmlns="http://www.w3.org/2000/svg">
<path fill-rule="evenodd" clip-rule="evenodd" d="M1534 0H0V887H1534V0ZM1345.59 101.243C1345.59 77.0126 1369.5 61.0716 1406.8 61.0716C1428.16 61.0716 1448.25 66.1727 1465.47 74.4621L1470.25 62.6657C1451.44 53.4199 1429.12 48 1406.48 48C1360.89 48 1332.52 68.7233 1332.52 101.881C1332.52 139.077 1369.38 151.928 1404.87 164.304C1437.83 175.795 1469.61 186.876 1469.61 216.656C1469.61 244.393 1442.51 261.928 1402.66 261.928C1380.02 261.928 1358.66 256.19 1337.94 245.031L1332.84 256.827C1354.2 268.305 1378.43 275 1403.3 275C1450.16 275 1483 252.045 1483 216.018C1483 177.469 1444.69 163.896 1408.53 151.082C1376.2 139.628 1345.59 128.781 1345.59 101.243ZM51 273.087V49.9129H144.094C185.54 49.9129 218.059 78.6068 218.059 115.271C218.059 144.921 196.698 169.152 167.048 177.76L217.102 273.087H202.437L154.296 179.992C151.108 180.629 147.601 180.629 144.094 180.629H64.3902V273.087H51ZM64.3902 168.195H144.094C177.888 168.195 204.35 144.921 204.35 115.271C204.35 85.6208 177.888 62.3469 144.094 62.3469H64.3902V168.195ZM275.478 273.087V49.9129H429.465V62.3469H288.868V154.167H416.713V166.601H288.868V260.653H429.465V273.087H275.478ZM474.816 49.9129H460.789L560.896 273.087H574.287L674.713 49.9129H660.367L567.591 255.871L474.816 49.9129ZM721.32 273.087V49.9129H734.71V273.087H721.32ZM805.382 49.9129V273.087H959.37V260.653H818.773V166.601H946.617V154.167H818.773V62.3469H959.37V49.9129H805.382ZM990.693 49.9129H1004.08L1071.35 253.001L1138.94 49.9129H1152.33L1220.24 253.001L1287.19 49.9129H1300.9L1226.93 273.087H1213.86L1145.64 68.7233L1077.41 273.087H1064.34L990.693 49.9129Z" fill="white"/>
</svg>
