<svg width="72" height="78" viewBox="0 0 72 78" fill="none" xmlns="http://www.w3.org/2000/svg">
<path d="M0 38.6639C0 37.6777 0.474104 37.2295 1.61452 37.2295C4.67699 37.2295 7.6882 36.9093 10.6482 36.1281C17.465 34.3223 21.6551 29.8271 23.8206 23.2572C24.9995 19.6585 25.4992 15.9445 25.717 12.1793C25.8323 10.0534 25.8451 7.92742 25.8964 5.80149C25.922 4.86659 26.3705 4.43115 27.2803 4.43115C28.2029 4.43115 28.6257 4.85378 28.6642 5.78868C28.8307 9.1953 28.9076 12.6147 29.1895 16.0214C29.4586 19.3127 30.2402 22.5144 31.5472 25.5753C34.0971 31.5048 38.6588 34.9883 44.8606 36.2946C47.5131 36.8581 50.2552 36.9477 52.9717 37.1911C54.1249 37.2935 54.6503 37.7674 54.5477 38.856C54.4709 39.6628 53.9968 40.0342 52.9845 40.0854C51.2034 40.2007 49.4223 40.2391 47.654 40.4568C38.3257 41.571 32.5467 46.681 30.2018 55.8122C28.8948 60.8966 28.7026 66.0705 28.6642 71.2829C28.6642 72.3715 28.2413 72.871 27.3187 72.8966C26.4346 72.9222 25.922 72.4355 25.8964 71.5518C25.7811 68.6191 25.7555 65.6863 25.5376 62.7663C25.2685 59.0396 24.5638 55.3768 23.103 51.9061C20.489 45.6692 15.6711 42.1217 9.14895 40.8538C6.68873 40.38 4.13881 40.3159 1.62733 40.0982C0.486918 39.9958 0 39.6116 0 38.6511V38.6639ZM43.0155 38.6895C34.1997 36.0513 29.4074 29.9424 27.2547 21.3874C25.1917 29.968 20.489 36.0897 11.5579 38.6254C20.425 41.3149 25.1788 47.4237 27.3059 55.9275C29.3689 47.2957 34.11 41.1996 43.0155 38.6767V38.6895Z" fill="#003952"/>
<path d="M71.8077 60.4228C71.8077 61.268 71.3849 61.6906 70.4623 61.7803C69.2963 61.8955 68.0918 61.8827 66.9514 62.1133C62.9535 62.9329 60.5061 65.5583 59.9039 69.7846C59.6091 71.8849 59.6091 74.0108 59.3913 76.124C59.34 76.5594 59.0197 77.1485 58.6609 77.3278C58.2893 77.5071 57.559 77.4559 57.2514 77.1997C56.9055 76.9052 56.7389 76.2776 56.6876 75.7782C56.5082 73.87 56.521 71.9361 56.252 70.0407C55.56 64.9692 52.2797 62.0748 47.1927 61.8571C46.6802 61.8315 46.1548 61.8187 45.6422 61.7803C44.7453 61.6906 44.2968 61.2424 44.2968 60.4228C44.2968 59.5775 44.7709 59.0909 45.6935 59.014C46.8083 58.9116 47.9487 58.9372 49.0379 58.7194C53.1639 57.8998 55.6369 55.2488 56.2391 50.8945C56.5082 48.9094 56.5339 46.8987 56.662 44.8881C56.7261 43.8635 57.1361 43.3256 57.969 43.2744C58.8403 43.2232 59.3529 43.7995 59.4169 44.7984C59.5579 46.8603 59.5963 48.935 59.891 50.9713C60.6086 55.8891 63.9786 58.7963 68.9503 58.95C69.5013 58.9628 70.0523 58.95 70.5904 59.014C71.4105 59.1165 71.8077 59.6031 71.7949 60.41L71.8077 60.4228ZM58.0715 66.4548C59.1478 63.6501 60.9033 61.665 63.607 60.41C60.9418 59.1037 59.2119 57.093 58.0587 54.3651C56.9695 57.1442 55.2269 59.1677 52.5104 60.3971C55.1628 61.7034 56.9055 63.7013 58.0715 66.4548Z" fill="#003952"/>
<path d="M71.8078 17.1612C71.7949 18.0449 71.3208 18.4419 70.2958 18.5443C68.9503 18.6724 67.5793 18.698 66.2851 19.0182C62.4025 19.9915 60.5061 22.7962 59.9167 26.523C59.5835 28.6105 59.5707 30.7492 59.4298 32.8624C59.3913 33.4643 59.2119 34.015 58.5969 34.1046C58.1356 34.1815 57.4949 34.1431 57.1874 33.8741C56.867 33.5924 56.7389 32.9776 56.7005 32.5038C56.5339 30.5956 56.5339 28.6617 56.2776 26.7663C55.5729 21.6436 52.2285 18.7236 47.0518 18.5699C46.5392 18.5571 46.0139 18.5699 45.5013 18.4931C44.6941 18.3778 44.284 17.8527 44.3353 17.0587C44.3737 16.2903 44.7709 15.8421 45.5654 15.7652C46.7955 15.65 48.0512 15.65 49.2429 15.3938C53.292 14.523 55.6882 11.9104 56.2776 7.60727C56.5467 5.62221 56.5723 3.61153 56.7005 1.60086C56.7261 0.563501 57.2002 0 58.0587 0C58.9044 0 59.3529 0.550695 59.417 1.53682C59.5579 3.59873 59.5963 5.67343 59.8911 7.70972C60.6086 12.6147 63.9145 15.4707 68.8734 15.6756C69.45 15.7012 70.0267 15.714 70.5905 15.778C71.4234 15.8805 71.8078 16.3415 71.7949 17.1612H71.8078ZM52.5232 17.1228C55.1756 18.4419 56.9311 20.4525 58.0843 23.1804C59.1479 20.4013 60.9033 18.3906 63.6198 17.1356C60.9546 15.8293 59.2119 13.8186 58.0715 11.1035C56.9824 13.8442 55.2653 15.8933 52.5232 17.1228Z" fill="#003952"/>
</svg>
