<svg width="88" height="60" viewBox="0 0 88 60" fill="none" xmlns="http://www.w3.org/2000/svg">
<path d="M12.8395 9.36265C16.3889 9.36265 19.9254 9.36265 23.4748 9.36265C27.8955 9.37546 30.8811 13.717 29.2025 17.8024C27.998 20.7351 26.4348 23.527 25.2559 26.4726C22.6291 33.0425 22.5779 39.6252 26.0376 45.9262C29.3691 51.9839 34.6611 55.3264 41.5421 56.0052C48.3718 56.684 54.2789 54.6349 58.8918 49.4737C62.864 45.0297 64.312 39.6893 63.9019 33.7853C63.6456 30.0841 62.4155 26.7031 60.8138 23.4118C59.9297 21.606 59.0327 19.8002 58.2767 17.9432C56.5213 13.6786 59.4684 9.36265 64.0941 9.36265C71.2826 9.36265 78.4711 9.36265 85.6595 9.36265C86.9024 9.36265 87.62 10.1439 87.415 11.2453C87.2612 12.0649 86.6718 12.4747 85.5955 12.4747C78.5095 12.4747 71.4107 12.4747 64.3248 12.4747C62.4796 12.4747 61.1982 13.4224 60.9932 15.0873C60.9163 15.7533 61.1085 16.5217 61.3776 17.1364C62.6462 20.018 64.171 22.7842 65.273 25.7298C68.3867 34.0799 67.9639 42.1994 62.7999 49.6786C58.9558 55.2368 53.4716 58.2976 46.7572 59.0917C40.2095 59.8729 34.2127 58.4129 29.0103 54.3019C24.0258 50.3702 21.2965 45.1322 20.4892 38.8568C19.7461 33.0937 20.9633 27.7021 23.5133 22.5409C24.4102 20.7095 25.32 18.8781 26.1273 16.9955C27.1908 14.5366 25.7813 12.4619 23.0648 12.4619C16.171 12.4619 9.26448 12.4619 2.37073 12.4619C2.11445 12.4619 1.84537 12.4619 1.58909 12.4619C0.589629 12.4235 -0.0126132 11.8344 0.00020046 10.8995C0.00020046 9.96458 0.602442 9.36266 1.61472 9.34985C5.35631 9.34985 9.0979 9.34985 12.8395 9.34985V9.36265Z" fill="#003952"/>
<path d="M28.0749 35.4502C28.0237 32.6327 28.7156 29.9177 29.9201 27.3307C33.9692 18.6348 38.0568 9.95178 42.1187 1.25592C42.4647 0.525934 42.8747 -0.0247555 43.7717 0.000858206C44.6174 0.0136651 45.0146 0.551554 45.3349 1.24312C49.3969 9.93898 53.51 18.6092 57.5207 27.3307C59.9553 32.6071 60.25 38.0116 57.572 43.288C54.8555 48.6157 50.3066 51.2923 44.3739 51.4844C38.1849 51.6893 33.3157 49.2688 30.1636 43.8259C28.69 41.2773 28.0365 38.4726 28.0877 35.463L28.0749 35.4502ZM43.7717 5.40535C43.6179 5.62307 43.541 5.6871 43.5026 5.77675C39.8122 13.6786 36.0706 21.5676 32.4444 29.495C31.1374 32.3638 30.817 35.4374 31.509 38.5495C32.8032 44.3894 36.9292 47.9881 42.926 48.3339C49.0765 48.6925 54.0867 45.414 55.7268 39.3307C56.7391 35.5911 56.1881 31.9924 54.5736 28.5345C52.4593 24.0137 50.3451 19.4929 48.2308 14.9721C46.7572 11.8344 45.2965 8.6967 43.7717 5.41815V5.40535Z" fill="#003952"/>
<path d="M36.6345 29.9945C37.7749 30.0201 38.454 30.9422 38.108 32.0692C37.5186 34.0287 37.2367 35.9881 37.8005 37.9988C38.2746 39.6637 39.2613 40.8547 40.8502 41.5591C42.029 42.0714 42.375 42.8142 41.9649 43.7491C41.5293 44.7224 40.7092 44.9657 39.5047 44.4278C36.2372 42.9679 34.6868 40.304 34.3664 36.859C34.1871 34.8995 34.4177 32.9785 35.0968 31.1215C35.3659 30.4043 35.8144 29.9817 36.6088 30.0073L36.6345 29.9945Z" fill="#003952"/>
<path d="M40.6836 25.192C39.1716 25.192 38.3899 24.1802 38.8384 23.1045C39.4663 21.6189 40.1454 20.1589 40.863 18.7117C41.2602 17.9177 42.1443 17.6744 42.9388 18.0586C43.6948 18.4172 44.0536 19.1984 43.7076 19.9924C43.0669 21.478 42.4006 22.9508 41.6574 24.3723C41.4396 24.795 40.8886 25.0383 40.6836 25.192Z" fill="#003952"/>
</svg>
