<svg width="82" height="82" viewBox="0 0 82 82" fill="none" xmlns="http://www.w3.org/2000/svg">
<path d="M43.1604 0C56.1069 0 69.0535 0 82 0V82H0C0 54.6667 0 27.3333 0 0C12.9991 0 26.0035 0 39.0026 0C38.8817 0.0473077 38.766 0.126154 38.6399 0.136667C35.6595 0.436282 32.8736 1.3509 30.2874 2.83321C24.5895 6.10269 18.8285 9.2618 13.2409 12.7153C6.51269 16.8731 2.92256 23.0441 2.74385 30.9813C2.59667 37.5308 2.70179 44.0855 2.71756 50.6403C2.71756 51.6495 2.75962 52.6692 2.92782 53.6627C4.12103 60.701 7.80051 66.031 13.9873 69.6106C19.3278 72.7014 24.6368 75.8447 30.0246 78.8514C37.3047 82.9146 44.7005 82.9567 51.9964 78.925C57.605 75.829 63.1715 72.6436 68.6382 69.311C75.5556 65.0954 79.2509 58.8455 79.4086 50.7138C79.54 44.1644 79.4401 37.6096 79.4244 31.0549C79.4244 30.0982 79.3823 29.131 79.2246 28.1901C78.0629 21.3463 74.5622 16.0373 68.5751 12.484C63.1085 9.24077 57.605 6.0659 52.0542 2.97513C50.3301 2.01321 48.4273 1.35615 46.556 0.699103C45.4732 0.320641 44.2853 0.226026 43.1499 0L43.1604 0Z" fill="none"/>
<path d="M43.1604 0C44.3011 0.226026 45.4838 0.320641 46.5666 0.699103C48.4379 1.35615 50.346 2.01321 52.0648 2.97513C57.6156 6.0659 63.119 9.24077 68.5857 12.484C74.5727 16.0373 78.0735 21.341 79.2352 28.1901C79.3929 29.131 79.4349 30.0982 79.4349 31.0549C79.4507 37.6096 79.5506 44.1644 79.4192 50.7138C79.2562 58.8455 75.5662 65.0954 68.6488 69.311C63.1769 72.6436 57.6103 75.8237 52.007 78.925C44.7058 82.9567 37.3153 82.9146 30.0352 78.8514C24.6474 75.8447 19.3384 72.7014 13.9979 69.6106C7.81108 66.031 4.13159 60.701 2.93839 53.6627C2.77018 52.6692 2.73339 51.6495 2.72813 50.6403C2.71236 44.0855 2.60723 37.5308 2.75441 30.9813C2.93313 23.0441 6.52326 16.8731 13.2462 12.7205C18.8338 9.27231 24.5948 6.10795 30.2927 2.83846C32.8842 1.35615 35.6701 0.441538 38.6452 0.141923C38.7713 0.13141 38.887 0.0525641 39.0079 0.00525641H43.1657L43.1604 0ZM77.0485 40.9527C77.0485 37.8094 77.0643 34.666 77.038 31.5227C77.0327 30.5923 77.0012 29.6514 76.854 28.7368C75.8658 22.571 72.754 17.7824 67.3662 14.5918C61.8785 11.3381 56.3593 8.12641 50.7822 5.02513C44.4798 1.5191 38.0144 1.41397 31.6804 4.87795C25.9457 8.01077 20.2793 11.2908 14.6917 14.6759C8.30518 18.5394 5.17762 24.3635 5.1198 31.8065C5.07249 37.7463 5.10403 43.686 5.1198 49.6258C5.1198 50.5299 5.15659 51.434 5.25121 52.3328C5.92929 58.6353 8.92018 63.592 14.2975 66.8983C19.9324 70.3623 25.6881 73.6476 31.4754 76.8487C37.7884 80.339 44.2538 80.381 50.5772 76.9013C56.3067 73.7474 61.9836 70.4937 67.5712 67.0876C73.8316 63.2714 76.9066 57.5262 77.038 50.2145C77.0906 47.1237 77.0485 44.0382 77.0485 40.9474V40.9527Z" fill="#003952"/>
<path d="M74.3256 40.9212C74.3256 44.1434 74.3834 47.3708 74.3151 50.5877C74.1889 56.5538 71.6764 61.3529 66.6197 64.4909C60.7746 68.1231 54.7928 71.5503 48.7374 74.8198C43.6702 77.5531 38.3507 77.5006 33.2941 74.7515C27.3859 71.5398 21.546 68.1809 15.8112 64.6697C10.5706 61.4633 7.91086 56.5958 7.84778 50.4301C7.7847 44.1434 7.80573 37.8567 7.84253 31.5701C7.87932 25.2361 10.5969 20.3003 15.9952 17.0308C21.6827 13.5879 27.4384 10.2553 33.2783 7.08044C38.3087 4.34185 43.5598 4.34185 48.6638 6.94903C52.0227 8.66262 55.2291 10.6706 58.4985 12.5629C59.266 13.0097 59.4762 13.6667 59.1135 14.2975C58.7403 14.944 58.0202 15.0912 57.237 14.6392C54.3775 12.9992 51.5285 11.3381 48.6691 9.69287C43.6229 6.79133 38.5715 6.78608 33.5306 9.69287C28.0692 12.8415 22.5815 15.9375 17.1779 19.1754C12.7362 21.8404 10.4024 25.9247 10.292 31.0654C10.1448 37.6412 10.1396 44.2275 10.292 50.8033C10.4129 55.944 12.7573 60.023 17.2042 62.6775C22.7707 66.0048 28.3898 69.248 34.051 72.4124C38.787 75.0616 43.6282 74.9775 48.3432 72.3125C53.8571 69.2007 59.3396 66.0416 64.7852 62.8142C69.3425 60.1071 71.7762 55.9913 71.8919 50.7192C72.0338 44.1959 72.0338 37.6675 71.8919 31.1443C71.7762 25.8353 69.3057 21.7563 64.7379 18.9862C64.0336 18.5604 63.3082 18.1609 62.5985 17.7404C61.8153 17.2779 61.5788 16.5998 61.9573 15.9533C62.3305 15.3225 62.9928 15.2016 63.7655 15.6063C67.0612 17.3357 70.0153 19.454 71.9444 22.7603C73.4635 25.3675 74.3151 28.1481 74.3256 31.1758C74.3361 34.4243 74.3256 37.6727 74.3256 40.9265V40.9212Z" fill="#003952"/>
<path d="M30.7763 44.1959C30.7605 50.7454 35.2757 55.5918 40.8948 56.2646C47.7177 57.0793 52.7954 52.2277 53.7363 46.9712C54.2093 44.343 53.8729 41.841 52.6745 39.4546C52.543 39.197 52.4011 38.9184 52.3748 38.6398C52.317 38.0511 52.5851 37.6096 53.158 37.3993C53.8204 37.1575 54.3933 37.3993 54.6298 37.9933C55.2186 39.4914 55.9282 40.9947 56.1963 42.5611C57.3842 49.5154 53.1107 56.191 46.3089 58.2252C38.0354 60.701 29.3675 54.9662 28.4424 46.4036C27.6277 38.8448 32.6213 32.1587 40.1327 30.9077C43.9225 30.2769 47.418 31.1442 50.5614 33.3834C51.3288 33.9301 51.4865 34.5924 51.0345 35.2127C50.5982 35.8119 49.8991 35.8855 49.1369 35.3388C45.0264 32.3742 39.4546 32.5477 35.6857 35.2968C32.4793 37.6306 30.8604 40.8055 30.7815 44.1959H30.7763Z" fill="#003952"/>
<path d="M40.9317 25.2886C38.9605 25.173 37.7726 24.4634 37.1155 23.0336C36.4584 21.5986 36.6687 20.2057 37.699 19.0125C38.3718 18.2293 39.1234 17.4986 39.8961 16.81C41.3417 15.5275 43.4968 15.5748 44.916 16.8784C46.33 18.1714 46.5981 20.3476 45.3996 21.8614C44.6269 22.8339 43.7228 23.7275 42.7504 24.5002C42.1617 24.968 41.3311 25.1309 40.9369 25.2939L40.9317 25.2886ZM43.6702 19.3804C43.5388 19.2069 43.3391 18.6813 42.9817 18.5394C42.5822 18.3764 41.9146 18.3817 41.594 18.6235C40.8213 19.207 40.1117 19.9218 39.5229 20.6945C39.2759 21.0152 39.2233 21.709 39.402 22.0664C39.586 22.4291 40.159 22.7445 40.59 22.7918C41.3995 22.8812 43.665 20.4843 43.6702 19.3857V19.3804Z" fill="#003952"/>
<path d="M21.5671 36.6267C21.2149 36.6057 20.9679 36.6109 20.7366 36.5689C19.1754 36.2798 16.3054 33.4255 15.9848 31.8539C15.6431 30.1981 16.3475 28.6001 17.7825 27.7696C19.1649 26.9707 20.9468 27.1231 22.1611 28.2164C22.9127 28.8892 23.6434 29.5989 24.3004 30.3663C25.3517 31.5805 25.5672 32.9892 24.8891 34.4505C24.2216 35.8855 23.0336 36.5794 21.5671 36.6267ZM21.7511 34.2087C21.9508 34.0458 22.4817 33.804 22.6341 33.415C22.7918 33.026 22.7288 32.3637 22.4817 32.0378C21.9088 31.2862 21.2149 30.5923 20.4632 30.0246C20.1426 29.7776 19.4698 29.7355 19.0913 29.9037C18.7497 30.0562 18.4448 30.5976 18.387 31.0076C18.2661 31.8486 20.6104 34.1982 21.7563 34.2087H21.7511Z" fill="#003952"/>
<path d="M66.6461 53.7311C66.6461 55.8179 64.9115 57.5472 62.8352 57.5314C60.7694 57.5157 59.1137 55.8336 59.1084 53.7521C59.1031 51.639 60.8062 49.9412 62.8983 49.9675C64.9746 49.9937 66.6408 51.6705 66.6408 53.7363L66.6461 53.7311ZM64.2176 53.7416C64.2176 53.0372 63.6289 52.4327 62.914 52.417C62.1413 52.3959 61.5421 52.9689 61.5369 53.7311C61.5369 54.4827 62.1519 55.0872 62.9035 55.0662C63.6131 55.0504 64.2176 54.4459 64.2176 53.7416Z" fill="#003952"/>
<path d="M64.2018 26.671C64.6066 27.0495 65.1165 27.3176 65.2426 27.7118C65.3582 28.0745 65.2058 28.7841 64.9272 28.9628C63.9495 29.5831 62.8877 30.0877 61.8154 30.5345C61.3161 30.7447 60.7326 30.4924 60.5697 29.9615C60.4488 29.562 60.4488 28.8209 60.6853 28.6632C61.7523 27.9431 62.9245 27.3754 64.2018 26.6763V26.671Z" fill="#003952"/>
<path d="M41.0211 67.7813C41.0211 68.7538 39.9488 69.4056 39.1971 68.8589C38.5611 68.3963 38.0144 67.7919 37.5046 67.1874C37.1419 66.7563 37.1681 66.1466 37.5992 65.8207C37.9461 65.5526 38.6767 65.2951 38.9185 65.4685C39.6702 66.0152 40.2747 66.7669 40.9212 67.4554C41.0001 67.5396 40.9948 67.7025 41.0158 67.7813H41.0211Z" fill="#003952"/>
<path d="M30.7868 24.437C30.6291 24.6525 30.4504 25.1151 30.135 25.2517C29.7828 25.4042 29.1836 25.4199 28.8945 25.2149C28.2742 24.7786 27.7486 24.1952 27.2545 23.6065C26.8918 23.1754 26.9233 22.5815 27.3491 22.2345C27.675 21.9717 28.3688 21.6931 28.5791 21.8456C29.3518 22.4133 29.9983 23.1544 30.6764 23.8483C30.7552 23.9271 30.729 24.1006 30.792 24.4317L30.7868 24.437Z" fill="#003952"/>
<path d="M18.5866 47.2972C18.3501 47.2867 18.103 47.3077 17.877 47.2551C17.2095 47.1079 16.7732 46.7085 16.8047 45.9883C16.8363 45.3155 17.262 44.9213 17.9138 44.8477C18.3816 44.7951 18.8705 44.7899 19.3383 44.8424C20.0269 44.916 20.4632 45.2892 20.4737 46.0304C20.4842 46.7663 20.0532 47.1395 19.3804 47.2656C19.1228 47.3129 18.8547 47.2709 18.5866 47.2709V47.2972Z" fill="#003952"/>
<path d="M50.7138 62.7984C51.9701 62.7984 52.5798 63.1978 52.5588 64.0126C52.543 64.8273 51.9385 65.211 50.677 65.211C50.5193 65.211 50.3616 65.211 50.1987 65.211C49.3682 65.1848 48.832 64.6959 48.8425 63.9758C48.853 63.2714 49.3419 62.8299 50.1566 62.7984C50.3406 62.7931 50.5298 62.7984 50.7138 62.7984Z" fill="#003952"/>
<path d="M25.6198 58.2725C25.6198 58.4302 25.625 58.5879 25.6198 58.7508C25.5777 59.5445 25.1151 60.0702 24.4476 60.0912C23.7432 60.1122 23.2228 59.5656 23.1913 58.7456C23.1755 58.4039 23.1755 58.057 23.1913 57.7153C23.2228 56.9163 23.6801 56.417 24.374 56.3959C25.1257 56.3749 25.5725 56.848 25.6198 57.7205C25.6303 57.9045 25.6198 58.0885 25.6198 58.2777V58.2725Z" fill="#003952"/>
<path d="M55.1292 24.8627C55.1292 26.1348 54.756 26.713 53.9255 26.7288C53.0424 26.7498 52.6692 26.1821 52.6744 24.8417C52.6744 24.7366 52.6744 24.6315 52.6744 24.5263C52.706 23.6065 53.1528 23.0545 53.8677 23.0388C54.6193 23.023 55.1082 23.6065 55.1239 24.5474C55.1239 24.6525 55.1239 24.7576 55.1239 24.8627H55.1292Z" fill="#003952"/>
</svg>
