<svg width="1534" height="305" viewBox="0 0 1534 305" fill="none" xmlns="http://www.w3.org/2000/svg"><path fill-rule="evenodd" clip-rule="evenodd" d="M1534 0H0v577h1534V0zm-167.03 97.021c0-22.309 22.1-36.986 56.59-36.986 19.75 0 38.31 4.697 54.23 12.329l4.42-10.861C1464.82 52.99 1444.19 48 1423.26 48c-42.14 0-68.37 19.08-68.37 49.608 0 34.247 34.07 46.079 66.88 57.473 30.47 10.58 59.85 20.783 59.85 48.201 0 25.538-25.05 41.683-61.89 41.683-20.93 0-40.68-5.284-59.83-15.558l-4.72 10.861c19.75 10.568 42.15 16.732 65.14 16.732 43.32 0 73.68-21.135 73.68-54.305 0-35.492-35.41-47.989-68.84-59.786-29.89-10.546-58.19-20.533-58.19-45.888zM51 49.761V255.24h105.515c33.894 0 60.715-24.07 60.715-54.599 0-25.537-18.863-46.085-45.094-52.25 21.221-7.925 35.957-25.831 35.957-47.259 0-28.767-26.821-51.37-60.715-51.37H51zm96.378 94.52h-84V61.209h84c27.116 0 48.042 18.2 48.042 41.389 0 23.483-20.926 41.683-48.042 41.683zm9.137 99.51H63.379v-88.356h93.136c27.115 0 48.041 19.374 48.041 44.031 0 24.658-20.926 44.325-48.041 44.325zm110.067-194.03V255.24h142.357v-11.448H278.961v-86.594h118.188V145.75H278.961V61.21h129.978V49.761H266.582zM460.001 255.24V49.761h12.379l149.43 185.811V49.762h12.379v205.477H621.81L472.38 69.429v185.81h-12.379zm239.76-205.478V255.24h142.356v-11.448H712.139v-86.594h118.189V145.75H712.139V61.21h129.978V49.761H699.761zM893.18 255.24V49.761h140.88V61.21H905.559v84.833h116.711v11.742H905.559v97.455H893.18zm187.37-205.478V255.24h12.38V49.761h-12.38zm144.03 205.478V61.209h-89.6V49.761h191.58V61.21h-89.6v194.03h-12.38z" fill="#fff"/></svg>