<svg width="1432" height="233" viewBox="0 0 1432 233" fill="none" xmlns="http://www.w3.org/2000/svg"><path d="M0 231.036V1.963h13.723v107.01H179.38V1.963h13.723v229.073H179.38v-109.3H13.723v109.3H0zm265.795 0V1.963h13.723v229.073h-13.723zM415.987 13.417c-38.228 0-62.734 16.363-62.734 41.233 0 59.887 140.825 42.87 140.825 117.809 0 36.979-33.654 60.541-81.685 60.541-25.486 0-50.318-6.872-72.209-18.653l5.228-12.108c21.238 11.453 43.129 17.344 66.328 17.344 40.842 0 68.615-17.999 68.615-46.469 0-63.486-140.498-44.179-140.498-117.81C339.857 21.272 368.937 0 415.66 0c23.199 0 46.071 5.563 65.348 15.053l-4.901 12.108c-17.644-8.508-38.228-13.744-60.12-13.744zm205.072 217.619V14.726h-99.328V1.963h212.38v12.763h-99.329v216.31h-13.723zM752.998 116.5C752.998 51.378 803.969 0 869.317 0 934.338 0 985.31 51.378 985.31 116.5S934.338 233 869.317 233c-65.348 0-116.319-51.378-116.319-116.5zm13.723 0c0 57.923 45.09 103.083 102.596 103.083 57.18 0 102.269-45.16 102.269-103.083S926.497 13.417 869.317 13.417c-57.506 0-102.596 45.16-102.596 103.083zm276.039 114.536V1.963h95.4c42.48 0 75.81 29.453 75.81 67.086 0 30.434-21.89 55.305-52.28 64.141l51.3 97.846h-15.03l-49.34-95.556c-3.27.655-6.86.655-10.46.655h-81.68v94.901h-13.72zm13.72-107.664h81.68c34.64 0 61.76-23.889 61.76-54.323s-27.12-54.323-61.76-54.323h-81.68v108.646zM1232.04 1.963h15.68l84.3 120.755 83.97-120.755H1432l-93.12 133.517v95.556h-13.72V135.48L1232.04 1.963z" fill="#fff"/></svg>