<svg width="454" height="84" viewBox="0 0 454 84" fill="none" xmlns="http://www.w3.org/2000/svg"><path d="M58.87 61.127c0 13.11-10.68 22.401-27.525 22.401s-27.35-9.55-27.35-9.55L0 53.137l1.476-.26C8.51 71.025 19.016 82.313 32.56 82.313c11.028 0 19.016-7.294 19.016-17.279-.087-23.79-49.232-15.803-49.232-43.588C2.344 9.117 13.98 0 30.13 0c7.815 0 17.019 3.734 23.357 6.946l3.994 20.839-1.476.26C48.884 12.07 40.462 1.302 28.132 1.302 17.54 1.302 9.725 8.77 9.725 17.887c0 22.314 49.144 14.587 49.144 43.153v.087zm27.437-22.489l34.471-30.39c1.91-1.997.52-5.296-2.258-5.296v-1.39h20.144v1.476c-1.042 0-2.084.434-2.952 1.13L91.864 37.942c-1.65 1.303-.782 3.907 1.302 3.907h6.946l41.591 37.597c.782.694 1.823 1.129 2.865 1.129v1.476h-20.144v-1.476c1.824 0 2.952-1.476 2.952-2.952 0-.782-.26-1.563-.955-2.171l-33.95-30.737c-1.041-.955-2.517-1.476-3.907-1.476-3.212 0-5.904 2.604-5.904 5.904v22.315a9.116 9.116 0 009.117 9.117v1.476H65.034v-1.476c5.123 0 9.204-4.168 9.204-9.204V12.155c0-5.036-4.081-9.204-9.204-9.204V1.562h26.743v1.476a9.261 9.261 0 00-6.512 2.692 9.261 9.261 0 00-2.692 6.512v24.833c0 1.91 2.258 2.865 3.647 1.65l.087-.087z" fill="#fff"/><path d="M224.103 80.489v1.476h-28.306v-1.476c5.383 0 9.117-5.383 7.207-10.333l-8.77-23.53c-1.129-3.126-5.123-3.994-7.467-1.65L160.024 71.72a5.066 5.066 0 00-1.476 3.56c0 1.563.694 3.126 2.084 4.081.521.347 1.128.695 1.736.868.608.174 1.303.26 1.91.26v1.477h-19.71V80.49c4.168 0 7.989-2.605 9.378-6.6l22.749-62.081c.26-.781.434-1.563.434-2.258 0-3.473-2.865-6.599-6.599-6.599v-1.39h17.713l27.003 72.762a9.946 9.946 0 003.473 4.515c1.563 1.042 3.474 1.737 5.384 1.737v-.087zm-34.471-46.193l-9.898-26.482-21.099 57.393c-.782 2.084 1.823 3.734 3.473 2.17l25.961-25.96c1.91-1.91 2.518-4.69 1.563-7.12zm105.93-31.345c-5.123 0-9.29 4.168-9.29 9.291v41.851c0 8.075-3.3 15.456-8.596 20.752a29.343 29.343 0 01-20.752 8.596c-17.8 0-32.213-14.413-32.213-32.213V12.242c0-5.123-4.168-9.29-9.291-9.29v-1.39h27.004v1.476c-5.123 0-9.291 4.168-9.291 9.29v38.987c0 13.11 10.593 23.704 23.704 23.704h4.255c13.111 0 23.704-10.593 23.704-23.704V12.242c0-5.123-4.168-9.29-9.291-9.29v-1.39h19.97v1.476l.087-.087zm68.942 9.291v59.043c0 5.123 4.167 9.29 9.29 9.29v1.477h-21.446L311.104 9.116a2.606 2.606 0 00-3.125-1.128c-1.042.347-1.65 1.389-1.65 2.517v60.867a9.116 9.116 0 009.117 9.117v1.476h-19.797v-1.476a9.116 9.116 0 009.117-9.117v-59.13c0-5.123-4.168-9.204-9.204-9.204V1.562h21.447l41.156 72.849c.434.781 1.303 1.302 2.258 1.302.694 0 1.389-.26 1.823-.781.434-.434.782-1.129.782-1.823V12.242c0-5.123-4.168-9.204-9.204-9.204V1.562h19.883v1.476c-5.122 0-9.203 4.168-9.203 9.204zm88.825 68.247v1.476h-28.306v-1.476c5.383 0 9.117-5.383 7.206-10.333l-8.769-23.53c-1.129-3.126-5.123-3.994-7.467-1.65L389.25 71.72a5.063 5.063 0 00-1.477 3.56c0 1.563.695 3.126 2.084 4.081.521.347 1.129.695 1.737.868.608.174 1.302.26 1.91.26v1.477h-19.71V80.49c4.168 0 7.988-2.605 9.378-6.6l22.748-62.081c.261-.781.435-1.563.435-2.258 0-3.473-2.866-6.599-6.599-6.599v-1.39h17.713l27.003 72.762a9.94 9.94 0 003.473 4.515c1.563 1.042 3.473 1.737 5.384 1.737v-.087zm-34.471-46.193l-9.899-26.482-21.099 57.393c-.781 2.084 1.824 3.734 3.473 2.17l25.962-25.96c1.91-1.91 2.518-4.69 1.563-7.12z" fill="#fff"/></svg>