<svg width="149" height="27" viewBox="0 0 149 27" fill="none" xmlns="http://www.w3.org/2000/svg"><path d="M19.35 19.295c0 4.008-3.511 6.85-9.048 6.85-5.536 0-8.99-2.921-8.99-2.921L0 16.852l.485-.08c2.312 5.55 5.765 9 10.217 9 3.624 0 6.25-2.23 6.25-5.283C16.923 13.215.77 15.658.77 7.162.77 3.392 4.595.605 9.903.605c2.568 0 5.593 1.142 7.677 2.124L18.893 9.1l-.486.08c-2.34-4.885-5.108-8.177-9.16-8.177-3.482 0-6.05 2.283-6.05 5.07 0 6.824 16.152 4.46 16.152 13.195v.027zm9.017-6.877l11.33-9.291c.628-.61.171-1.62-.742-1.62v-.424h6.621v.45c-.342 0-.685.134-.97.346L30.194 12.206c-.542.398-.257 1.195.428 1.195h2.283l13.67 11.495c.257.212.6.345.942.345v.451h-6.621v-.45c.6 0 .97-.452.97-.904a.825.825 0 00-.314-.663l-11.158-9.398c-.343-.292-.828-.451-1.285-.451-1.056 0-1.94.796-1.94 1.805v6.823c0 1.54 1.341 2.787 2.996 2.787v.451h-8.79v-.45c1.684 0 3.026-1.275 3.026-2.815V4.321c0-1.54-1.342-2.814-3.026-2.814v-.424h8.79v.45c-.827 0-1.598.32-2.14.824a2.736 2.736 0 00-.885 1.99v7.594c0 .584.742.876 1.199.504l.028-.027zm45.291 12.797v.45h-9.303v-.45c1.769 0 2.996-1.646 2.368-3.16l-2.882-7.194c-.371-.956-1.684-1.221-2.455-.505l-8.79 8.177a1.47 1.47 0 00.2 2.336c.172.107.371.213.571.266.2.053.428.08.628.08v.45h-6.478v-.45c1.37 0 2.625-.797 3.082-2.018l7.477-18.982c.086-.239.143-.478.143-.69 0-1.062-.942-2.018-2.17-2.018v-.424h5.823l8.875 22.247a3.078 3.078 0 001.142 1.38c.513.319 1.141.531 1.77.531v-.026zM62.328 11.09l-3.253-8.097-6.935 17.548c-.257.637.6 1.142 1.142.664l8.533-7.938c.627-.584.827-1.434.513-2.177zm34.817-9.583c-1.683 0-3.053 1.275-3.053 2.84v12.797c0 2.469-1.085 4.726-2.826 6.345-1.74 1.62-4.166 2.628-6.82 2.628-5.85 0-10.588-4.407-10.588-9.85V4.348c0-1.565-1.37-2.84-3.054-2.84v-.424h8.876v.45c-1.684 0-3.054 1.275-3.054 2.841v11.92c0 4.01 3.482 7.248 7.791 7.248h1.399c4.309 0 7.79-3.239 7.79-7.248V4.348c0-1.566-1.37-2.84-3.053-2.84v-.425h6.564v.45l.028-.026z" fill="#003952"/><path d="M119.805 4.348V22.4c0 1.567 1.37 2.841 3.054 2.841v.451h-7.049l-13.556-22.3c-.2-.318-.628-.478-1.028-.345-.342.106-.542.425-.542.77v18.61c0 1.54 1.341 2.788 2.997 2.788v.45h-6.507v-.45c1.655 0 2.996-1.248 2.996-2.788V4.347c0-1.565-1.37-2.813-3.025-2.813v-.451h7.049l13.528 22.273a.864.864 0 00.742.398c.228 0 .456-.08.599-.239a.8.8 0 00.257-.557V4.348c0-1.566-1.37-2.814-3.025-2.814v-.451h6.535v.45c-1.684 0-3.025 1.275-3.025 2.815z" fill="#003952"/><path d="M149 25.215v.45h-9.304v-.45c1.77 0 2.997-1.646 2.369-3.16l-2.882-7.194c-.371-.956-1.684-1.221-2.455-.505l-8.789 8.177a1.471 1.471 0 00.199 2.336c.172.107.371.213.571.266.2.053.428.08.628.08v.45h-6.478v-.45c1.369 0 2.625-.797 3.082-2.018l7.477-18.982c.086-.239.143-.478.143-.69 0-1.062-.942-2.018-2.169-2.018v-.424h5.822l8.875 22.247a3.074 3.074 0 001.142 1.38c.513.319 1.141.531 1.769.531v-.026zM137.67 11.09l-3.253-8.097-6.935 17.548c-.257.637.599 1.142 1.141.664l8.533-7.938c.628-.584.828-1.434.514-2.177z" fill="#003952"/></svg>