<svg width="1440" height="424" viewBox="0 0 1440 424" fill="none" xmlns="http://www.w3.org/2000/svg"><path fill-rule="evenodd" clip-rule="evenodd" d="M1440 0H0v194.573C8.343 122.528 67.943 68 142.803 68c80.385 0 143.4 63.506 143.4 144s-63.015 144-143.4 144C67.943 356 8.343 301.472 0 229.427V2214h1440V0zM15.966 212c0 71.596 55.744 127.416 126.837 127.416 70.69 0 126.434-55.82 126.434-127.416S213.493 84.584 142.803 84.584C71.71 84.584 15.966 140.404 15.966 212zM357.224 70.427h117.951c52.512 0 93.715 36.404 93.715 82.921 0 37.618-27.065 68.36-64.631 79.281l63.419 120.944h-18.582l-60.995-118.112c-4.039.809-8.483.809-12.926.809H374.189v117.303h-16.965V70.427zm16.965 150.067h100.986c42.818 0 76.345-29.528 76.345-67.146s-33.527-67.146-76.345-67.146H374.189v134.292zM732.123 70.427H641.64v283.146h90.483c84.828 0 151.882-62.292 151.882-141.573S817.355 70.427 732.123 70.427zm-.808 267.371h-72.709V86.202h72.709c75.941 0 135.725 55.416 135.725 125.798s-59.784 125.798-135.725 125.798zM955.247 70.427h195.103v15.775H972.213v116.495h161.977v15.775H972.213v119.326h178.137v15.775H955.247V70.427zm383.043 0h-117.96v283.146h16.97V236.27h100.99c4.44 0 8.88 0 12.92-.809l61 118.112h18.58l-63.42-120.944c37.57-10.921 64.63-41.663 64.63-79.281 0-46.517-41.2-82.921-93.71-82.921zm0 150.067H1237.3V86.202h100.99c42.81 0 76.34 29.528 76.34 67.146s-33.53 67.146-76.34 67.146z" fill="#fff"/></svg>