<svg width="1534" height="323" viewBox="0 0 1534 323" fill="none" xmlns="http://www.w3.org/2000/svg"><path fill-rule="evenodd" clip-rule="evenodd" d="M1534 0H0v887h1534V0zm-188.41 101.243c0-24.23 23.91-40.171 61.21-40.171 21.36 0 41.45 5.1 58.67 13.39l4.78-11.796C1451.44 53.42 1429.12 48 1406.48 48c-45.59 0-73.96 20.723-73.96 53.881 0 37.196 36.86 50.047 72.35 62.423 32.96 11.491 64.74 22.572 64.74 52.352 0 27.737-27.1 45.272-66.95 45.272-22.64 0-44-5.738-64.72-16.897l-5.1 11.796C1354.2 268.305 1378.43 275 1403.3 275c46.86 0 79.7-22.955 79.7-58.982 0-38.549-38.31-52.122-74.47-64.936-32.33-11.454-62.94-22.301-62.94-49.839zM51 273.087V49.913h93.094c41.446 0 73.965 28.694 73.965 65.358 0 29.65-21.361 53.881-51.011 62.489l50.054 95.327h-14.665l-48.141-93.095c-3.188.637-6.695.637-10.202.637H64.39v92.458H51zm13.39-104.892h79.704c33.794 0 60.256-23.274 60.256-52.924s-26.462-52.924-60.256-52.924H64.39v105.848zm211.088 104.892V49.913h153.987v12.434H288.868v91.82h127.845v12.434H288.868v94.052h140.597v12.434H275.478zM474.816 49.913h-14.027l100.107 223.174h13.391L674.713 49.913h-14.346L567.591 255.87 474.816 49.913zM721.32 273.087V49.913h13.39v223.174h-13.39zm84.062-223.174v223.174H959.37v-12.434H818.773v-94.052h127.844v-12.434H818.773v-91.82H959.37V49.913H805.382zm185.311 0h13.387L1071.35 253l67.59-203.088h13.39L1220.24 253l66.95-203.088h13.71l-73.97 223.174h-13.07l-68.22-204.364-68.23 204.364h-13.07L990.693 49.913z" fill="#fff"/></svg>