<svg width="88" height="60" viewBox="0 0 88 60" fill="none" xmlns="http://www.w3.org/2000/svg"><path d="M12.84 9.363h10.635c4.42.012 7.406 4.354 5.727 8.44-1.204 2.932-2.767 5.724-3.946 8.67-2.627 6.57-2.678 13.152.782 19.453 3.331 6.058 8.623 9.4 15.504 10.08 6.83.678 12.737-1.371 17.35-6.532 3.972-4.444 5.42-9.785 5.01-15.689-.256-3.7-1.486-7.082-3.088-10.373-.884-1.806-1.781-3.612-2.537-5.469-1.756-4.264 1.191-8.58 5.817-8.58H85.66c1.242 0 1.96.78 1.755 1.882-.154.82-.743 1.23-1.82 1.23h-21.27c-1.845 0-3.127.947-3.332 2.612-.077.666.115 1.435.385 2.05 1.268 2.881 2.793 5.647 3.895 8.593 3.114 8.35 2.69 16.47-2.473 23.949-3.844 5.558-9.328 8.619-16.043 9.413-6.547.78-12.544-.68-17.747-4.79-4.984-3.932-7.713-9.17-8.52-15.445-.744-5.763.473-11.155 3.023-16.316.897-1.832 1.807-3.663 2.614-5.546 1.064-2.458-.346-4.533-3.062-4.533H1.589c-1-.038-1.602-.628-1.589-1.563 0-.934.602-1.536 1.615-1.55h11.224v.014z" fill="#003952"/><path d="M28.075 35.45c-.051-2.817.64-5.532 1.845-8.12 4.05-8.695 8.137-17.378 12.199-26.074.346-.73.756-1.28 1.653-1.255.845.013 1.243.55 1.563 1.242C49.397 9.94 53.51 18.61 57.52 27.331c2.434 5.276 2.729 10.68.051 15.957-2.717 5.328-7.265 8.004-13.198 8.196-6.19.205-11.058-2.215-14.21-7.658-1.474-2.549-2.128-5.353-2.076-8.363l-.013-.013zM43.772 5.405c-.154.218-.231.282-.27.372-3.69 7.902-7.431 15.79-11.058 23.718-1.307 2.869-1.627 5.942-.935 9.055 1.294 5.84 5.42 9.438 11.417 9.784 6.15.358 11.16-2.92 12.8-9.003 1.013-3.74.462-7.339-1.152-10.797L48.23 14.973a2812.247 2812.247 0 01-4.46-9.554v-.013z" fill="#003952"/><path d="M36.635 29.994c1.14.026 1.819.948 1.473 2.075-.59 1.96-.871 3.92-.307 5.93.474 1.665 1.46 2.856 3.05 3.56 1.178.512 1.524 1.255 1.114 2.19-.436.973-1.256 1.217-2.46.679-3.268-1.46-4.818-4.124-5.139-7.569-.179-1.96.052-3.88.73-5.738.27-.717.718-1.14 1.513-1.114l.026-.013zm4.049-4.802c-1.512 0-2.294-1.012-1.846-2.087a79.973 79.973 0 012.025-4.393c.397-.794 1.281-1.038 2.076-.653.756.358 1.115 1.14.769 1.933-.641 1.486-1.307 2.959-2.05 4.38-.218.423-.77.666-.974.82z" fill="#003952"/></svg>