<svg width="85" height="82" viewBox="0 0 85 82" fill="none" xmlns="http://www.w3.org/2000/svg"><path d="M84.901 38.96c-.245 1.223-.414 2.46-.741 3.656-2.127 7.661-6.765 12.989-13.938 15.93l-.874.365c0 1.868.01 3.725 0 5.582-.01 1.931-.824 3.47-2.296 4.613-.41.318-.537.63-.532 1.127.02 2.455.026 4.915 0 7.37-.02 2.265-1.595 4.106-3.681 4.365-2.163.264-4.147-1.127-4.674-3.323-.112-.46-.112-.962-.112-1.444-.01-2.312-.015-4.63 0-6.941 0-.492-.092-.82-.511-1.143-1.478-1.132-2.296-2.666-2.312-4.603-.015-1.656-.03-3.312 0-4.968.01-.508-.153-.73-.618-.915-8.207-3.307-13.248-9.454-14.664-18.417-1.846-11.676 4.98-22.575 15.574-25.913 13.094-4.121 26.143 3.947 28.98 17.782.154.746.272 1.502.404 2.248v4.63h-.005zm-42.233-.862c.404 10.185 9.121 18.565 18.115 18.798.02-.053.067-.1.067-.154.01-.799.005-1.597.02-2.396.016-.99.593-1.656 1.411-1.656.818 0 1.401.677 1.412 1.656.01.851 0 1.703 0 2.66 5.128-.465 9.413-2.539 12.895-6.322 3.216-3.497 4.995-7.681 5.373-12.586-.92 0-1.718.005-2.515 0-.956-.01-1.61-.582-1.642-1.423-.03-.868.634-1.487 1.642-1.502.818-.016 1.63 0 2.449 0-.435-10.598-9.582-18.682-18.202-18.787v2.465c-.006 1.037-.599 1.74-1.437 1.72-.813-.016-1.376-.688-1.386-1.688-.01-.847 0-1.693 0-2.545-10.072.413-18.064 9.782-18.151 18.83.849 0 1.697-.017 2.546 0 .88.026 1.519.671 1.498 1.48-.02.815-.66 1.424-1.549 1.44-.823.015-1.646 0-2.546 0v.01zm15.4 21.766c0 1.555-.071 3.238.02 4.91.077 1.401 1.223 2.444 2.598 2.507 1.043.048 2.096.048 3.14 0 1.37-.058 2.484-.968 2.602-2.386.143-1.714.036-3.455.036-5.031h-8.396zm5.62 10.512H60.88c0 2.434-.015 4.799.01 7.164.01.862.66 1.497 1.407 1.486.716-.01 1.365-.608 1.38-1.433.036-2.392.016-4.783.016-7.222l-.006.005z" fill="#003952"/><path d="M36.164 7.857c1.912-2.116 4.04-3.878 6.52-5.121 5.88-2.968 11.918-3.788 18.12-1.122 3.267 1.402 5.854 3.714 7.833 6.75.567.868.465 1.763-.235 2.265-.706.503-1.544.286-2.122-.592-2.562-3.847-6.064-6.238-10.528-6.846-5.338-.73-10.252.65-14.557 4.005-1.375 1.074-2.551 2.428-3.748 3.724-.945 1.021-1.738 1.09-2.612-.01-3.16-3.99-7.179-6.466-12.062-7.534C13.278 1.307 4.658 7.428 3.195 17.253c-.89 5.973.686 11.285 3.774 16.232 3.19 5.1 7.429 9.173 12.005 12.898 5.215 4.243 10.83 7.857 16.617 11.19.271.153.752.158 1.028.01 1.1-.587 2.158-1.264 3.237-1.899.91-.534 1.723-.397 2.173.36.475.788.21 1.624-.731 2.206-1.207.74-2.434 1.455-3.651 2.18-.961.571-1.953.624-2.914.063-8.437-4.899-16.587-10.237-23.572-17.258-3.906-3.925-7.321-8.258-9.32-13.575C-1.05 22.004-.707 14.576 4.08 7.815 8.283 1.873 14.153-.55 21.219.18c5.772.598 10.645 3.127 14.664 7.45.056.058.128.105.276.227h.005z" fill="#003952"/><path d="M5.721 19.936c.102-5.92 3.625-11.418 8.626-13.216 1.355-.487 2.838-.63 4.28-.805.93-.11 1.605.588 1.63 1.429.02.799-.572 1.46-1.493 1.492-3.093.111-5.68 1.285-7.608 3.836-1.447 1.91-2.25 4.095-2.474 6.507-.041.455-.067.91-.113 1.365-.097.973-.644 1.529-1.462 1.503-.818-.027-1.355-.64-1.38-1.593v-.513l-.006-.005z" fill="#003952"/><path d="M42.668 38.103c.895 0 1.723.011 2.546 0 .885-.015 1.529-.629 1.55-1.439.02-.809-.62-1.454-1.499-1.48-.849-.022-1.697 0-2.546 0 .092-9.053 8.078-18.417 18.151-18.83 0 .846-.01 1.693 0 2.545.01 1 .573 1.671 1.386 1.687.838.016 1.426-.682 1.437-1.72.005-.82 0-1.645 0-2.465 8.62.112 17.762 8.19 18.202 18.787-.818 0-1.631-.01-2.45 0-1.007.016-1.676.635-1.64 1.503.03.841.685 1.418 1.64 1.423.798.01 1.59 0 2.516 0-.378 4.91-2.152 9.09-5.373 12.587-3.477 3.782-7.767 5.856-12.895 6.322 0-.958.005-1.81 0-2.661-.01-.98-.594-1.656-1.412-1.656s-1.39.666-1.41 1.656c-.016.798-.011 1.597-.021 2.396 0 .053-.041.1-.067.154-8.999-.233-17.711-8.614-18.115-18.798v-.01zm24.506-4.444c1.79-1.846 3.549-3.66 5.303-5.475.72-.746 1.462-1.476 2.147-2.254a1.476 1.476 0 00-.04-2.01c-.517-.54-1.34-.583-1.949-.075-.215.18-.399.392-.593.593l-6.851 7.137c-3.385-1.83-6.284-.212-7.563 1.714-1.564 2.354-1.288 5.513.67 7.518a5.56 5.56 0 007.204.667c1.933-1.37 3.406-4.46 1.678-7.81l-.006-.005z"/><path d="M67.174 33.66c1.729 3.354.256 6.438-1.677 7.808a5.553 5.553 0 01-7.204-.666c-1.958-2.005-2.234-5.164-.67-7.518 1.279-1.926 4.178-3.545 7.563-1.714l6.85-7.137c.195-.201.38-.418.594-.593.609-.508 1.432-.465 1.948.074.522.545.573 1.402.041 2.01-.685.784-1.427 1.508-2.147 2.254-1.754 1.815-3.513 3.624-5.303 5.476l.005.005zm-2.121 2.957c-.006-1.62-1.202-2.857-2.767-2.868-1.56-.005-2.77 1.233-2.781 2.852-.01 1.666 1.196 2.91 2.812 2.9 1.565-.011 2.746-1.26 2.74-2.89l-.004.006z" fill="#003952"/></svg>