<svg width="82" height="82" viewBox="0 0 82 82" fill="none" xmlns="http://www.w3.org/2000/svg"><path d="M43.16 0H82v82H0V0h39.003c-.121.047-.237.126-.363.137-2.98.3-5.766 1.214-8.353 2.696-5.697 3.27-11.459 6.429-17.046 9.882-6.728 4.158-10.318 10.33-10.497 18.266-.147 6.55-.042 13.105-.026 19.66 0 1.009.042 2.028.21 3.022C4.12 60.7 7.8 66.03 13.988 69.61c5.34 3.09 10.649 6.234 16.037 9.24 7.28 4.064 14.675 4.106 21.971.074 5.609-3.096 11.175-6.281 16.642-9.614 6.918-4.216 10.613-10.466 10.77-18.597.132-6.55.032-13.104.016-19.66 0-.956-.042-1.923-.2-2.864-1.161-6.844-4.662-12.153-10.649-15.706a695.569 695.569 0 00-16.52-9.509c-1.725-.961-3.629-1.618-5.5-2.274C45.473.321 44.286.226 43.15 0h.01z"/><path d="M43.16 0c1.141.226 2.324.32 3.407.7 1.87.656 3.779 1.313 5.498 2.275a695.768 695.768 0 0116.52 9.509c5.988 3.553 9.489 8.857 10.65 15.706.158.941.2 1.908.2 2.865.016 6.555.116 13.11-.016 19.659-.163 8.132-3.853 14.381-10.77 18.597-5.472 3.333-11.039 6.513-16.642 9.614-7.301 4.032-14.692 3.99-21.972-.074-5.388-3.006-10.697-6.15-16.037-9.24-6.187-3.58-9.866-8.91-11.06-15.948-.168-.994-.205-2.013-.21-3.023-.016-6.554-.12-13.11.026-19.659.18-7.937 3.77-14.108 10.492-18.26 5.588-3.449 11.349-6.613 17.047-9.883C32.884 1.356 35.67.442 38.645.142c.126-.01.242-.09.363-.137h4.158L43.16 0zm33.89 40.953c0-3.144.015-6.287-.011-9.43-.005-.93-.037-1.872-.184-2.786-.988-6.166-4.1-10.955-9.488-14.145-5.487-3.254-11.007-6.466-16.584-9.567C44.48 1.52 38.014 1.414 31.68 4.878a439.068 439.068 0 00-16.988 9.798c-6.387 3.863-9.514 9.687-9.572 17.13-.048 5.94-.016 11.88 0 17.82 0 .904.037 1.808.131 2.707.678 6.302 3.67 11.259 9.046 14.565 5.635 3.464 11.391 6.75 17.178 9.95 6.313 3.491 12.779 3.533 19.102.053 5.73-3.154 11.407-6.407 16.994-9.813 6.26-3.817 9.336-9.562 9.467-16.873.053-3.091.01-6.177.01-9.268v.006z" fill="#003952"/><path d="M74.326 40.921c0 3.222.057 6.45-.01 9.667-.127 5.966-2.64 10.765-7.696 13.903-5.845 3.632-11.827 7.06-17.883 10.329-5.067 2.733-10.386 2.68-15.443-.069A392.364 392.364 0 0115.811 64.67c-5.24-3.207-7.9-8.074-7.963-14.24-.063-6.287-.042-12.573-.005-18.86.036-6.334 2.754-11.27 8.152-14.54a430.022 430.022 0 0117.283-9.95c5.03-2.738 10.282-2.738 15.386-.131 3.359 1.714 6.565 3.722 9.834 5.614.768.447.978 1.104.616 1.734-.374.647-1.094.794-1.877.342-2.86-1.64-5.709-3.3-8.568-4.946-5.046-2.902-10.097-2.907-15.138 0-5.462 3.149-10.95 6.245-16.353 9.482-4.442 2.665-6.776 6.75-6.886 11.89a433.506 433.506 0 000 19.738c.12 5.141 2.465 9.22 6.912 11.875a669.765 669.765 0 0016.847 9.734c4.736 2.65 9.577 2.566 14.292-.1a895.177 895.177 0 0016.442-9.498c4.558-2.707 6.991-6.823 7.107-12.095.142-6.523.142-13.052 0-19.575-.116-5.309-2.586-9.388-7.154-12.158-.704-.426-1.43-.825-2.14-1.246-.783-.462-1.02-1.14-.64-1.787.373-.63 1.035-.751 1.808-.347 3.295 1.73 6.25 3.848 8.178 7.154 1.52 2.607 2.371 5.388 2.382 8.416.01 3.248 0 6.497 0 9.75v-.005z" fill="#003952"/><path d="M30.776 44.196c-.015 6.55 4.5 11.396 10.119 12.069 6.823.814 11.9-4.037 12.841-9.294.473-2.628.137-5.13-1.061-7.516-.132-.258-.274-.537-.3-.815-.058-.589.21-1.03.783-1.24.662-.242 1.235 0 1.472.593.589 1.498 1.298 3.002 1.566 4.568 1.188 6.954-3.085 13.63-9.887 15.664-8.274 2.476-16.941-3.259-17.867-11.821-.814-7.56 4.18-14.245 11.69-15.496 3.79-.631 7.286.236 10.43 2.475.767.547.925 1.21.473 1.83-.437.599-1.136.672-1.898.126-4.11-2.965-9.682-2.791-13.451-.042-3.207 2.334-4.826 5.509-4.904 8.899h-.006zm10.156-18.907c-1.971-.116-3.16-.826-3.817-2.255-.657-1.435-.446-2.828.584-4.021a23.482 23.482 0 012.197-2.203c1.446-1.282 3.6-1.235 5.02.068 1.414 1.293 1.682 3.47.484 4.983a16.551 16.551 0 01-2.65 2.64c-.588.467-1.419.63-1.813.793l-.005-.005zm2.738-5.909c-.131-.173-.33-.699-.688-.84-.4-.164-1.067-.158-1.388.084a10.888 10.888 0 00-2.071 2.07c-.247.321-.3 1.015-.121 1.372.184.363.757.678 1.188.726.81.09 3.075-2.308 3.08-3.406v-.006zM21.567 36.627c-.352-.021-.6-.016-.83-.058-1.562-.29-4.432-3.144-4.752-4.715-.342-1.656.363-3.254 1.797-4.084a3.756 3.756 0 014.38.446 22.944 22.944 0 012.138 2.15c1.052 1.215 1.267 2.623.59 4.084-.668 1.435-1.856 2.13-3.323 2.177zm.184-2.418c.2-.163.73-.405.883-.794.158-.389.095-1.051-.152-1.377a10.611 10.611 0 00-2.019-2.013c-.32-.247-.993-.29-1.372-.121-.341.152-.646.694-.704 1.104-.12.84 2.223 3.19 3.37 3.2h-.006zm44.895 19.522c0 2.087-1.734 3.816-3.81 3.8-2.067-.015-3.722-1.697-3.728-3.779-.005-2.113 1.698-3.81 3.79-3.785a3.777 3.777 0 013.743 3.77l.005-.006zm-2.428.01c0-.704-.59-1.308-1.304-1.324-.773-.021-1.372.552-1.377 1.314a1.33 1.33 0 001.367 1.335c.71-.016 1.314-.62 1.314-1.324zm-.016-27.07c.405.378.915.647 1.04 1.04.116.364-.036 1.073-.315 1.252-.978.62-2.04 1.125-3.112 1.572a.923.923 0 01-1.245-.573c-.121-.4-.121-1.141.115-1.299 1.067-.72 2.24-1.288 3.517-1.987v-.005zm-23.181 41.11c0 .973-1.072 1.625-1.824 1.078-.636-.463-1.183-1.067-1.692-1.672-.363-.43-.337-1.04.094-1.366.347-.268 1.078-.526 1.32-.352.751.546 1.356 1.298 2.002 1.986.08.085.074.248.095.326h.005zM30.787 24.437c-.158.215-.337.678-.652.815-.352.152-.951.168-1.24-.037-.62-.436-1.146-1.02-1.64-1.608-.363-.432-.332-1.026.094-1.372.326-.263 1.02-.542 1.23-.39.773.568 1.42 1.31 2.097 2.003.08.08.053.253.116.584l-.005.005zm-12.2 22.86c-.237-.01-.484.01-.71-.042-.668-.147-1.104-.547-1.072-1.267.031-.672.457-1.067 1.109-1.14a6.456 6.456 0 011.424-.006c.689.074 1.125.447 1.136 1.188.01.736-.42 1.11-1.094 1.236-.257.047-.525.005-.793.005v.026zm32.127 15.501c1.256 0 1.866.4 1.845 1.215-.016.814-.62 1.198-1.882 1.198h-.478c-.83-.026-1.367-.515-1.356-1.235.01-.705.499-1.146 1.314-1.178.184-.005.373 0 .557 0zM25.62 58.273c0 .157.005.315 0 .478-.042.794-.505 1.32-1.172 1.34-.705.021-1.225-.525-1.257-1.345a11.203 11.203 0 010-1.03c.032-.8.49-1.299 1.183-1.32.752-.021 1.199.452 1.246 1.325.01.184 0 .368 0 .557v-.005zm29.51-33.41c0 1.272-.374 1.85-1.205 1.866-.883.02-1.256-.547-1.25-1.887v-.316c.031-.92.478-1.471 1.193-1.487.751-.016 1.24.567 1.256 1.508v.316h.005z" fill="#003952"/></svg>