<svg width="72" height="78" viewBox="0 0 72 78" fill="none" xmlns="http://www.w3.org/2000/svg"><path d="M0 38.664c0-.986.474-1.434 1.615-1.434 3.062 0 6.073-.32 9.033-1.102 6.817-1.806 11.007-6.3 13.173-12.87 1.178-3.6 1.678-7.313 1.896-11.079.115-2.126.128-4.252.18-6.378.025-.934.474-1.37 1.383-1.37.923 0 1.346.423 1.384 1.358.167 3.406.244 6.826.525 10.232a30.568 30.568 0 002.358 9.554c2.55 5.93 7.112 9.413 13.314 10.72 2.652.563 5.394.653 8.11.896 1.154.102 1.68.576 1.577 1.665-.077.807-.551 1.178-1.564 1.23-1.78.115-3.562.153-5.33.37-9.328 1.115-15.107 6.225-17.452 15.356-1.307 5.085-1.5 10.258-1.538 15.47 0 1.09-.423 1.589-1.345 1.615-.884.025-1.397-.462-1.423-1.345-.115-2.933-.14-5.866-.358-8.786-.27-3.726-.974-7.39-2.435-10.86-2.614-6.237-7.432-9.784-13.954-11.052-2.46-.474-5.01-.538-7.522-.756C.487 39.996 0 39.612 0 38.651v.013zm43.016.026c-8.816-2.64-13.609-8.748-15.761-17.303-2.063 8.581-6.766 14.703-15.697 17.238 8.867 2.69 13.62 8.799 15.748 17.303 2.063-8.632 6.804-14.728 15.71-17.251v.013zm28.792 21.733c0 .845-.423 1.268-1.346 1.357-1.166.115-2.37.103-3.51.333-3.998.82-6.446 3.445-7.048 7.672-.295 2.1-.295 4.226-.513 6.339-.051.435-.371 1.025-.73 1.204-.372.18-1.102.128-1.41-.128-.345-.295-.512-.922-.563-1.422-.18-1.908-.167-3.842-.436-5.737-.692-5.072-3.972-7.966-9.06-8.184-.512-.026-1.037-.038-1.55-.077-.897-.09-1.345-.538-1.345-1.357 0-.846.474-1.332 1.397-1.409 1.114-.102 2.255-.077 3.344-.295 4.126-.82 6.599-3.47 7.201-7.825.27-1.985.295-3.995.423-6.006.064-1.024.474-1.562 1.307-1.614.871-.05 1.384.526 1.448 1.524.14 2.062.18 4.137.474 6.173.718 4.918 4.088 7.825 9.06 7.979.55.013 1.101 0 1.64.064.82.102 1.217.59 1.204 1.396l.013.013zM58.07 66.455c1.077-2.805 2.832-4.79 5.536-6.045-2.665-1.306-4.395-3.317-5.548-6.045-1.09 2.78-2.832 4.803-5.549 6.032 2.653 1.306 4.396 3.304 5.562 6.058zm13.738-49.294c-.013.884-.487 1.28-1.512 1.383-1.346.128-2.717.154-4.01.474-3.883.973-5.78 3.778-6.37 7.505-.332 2.087-.345 4.226-.486 6.34-.039.601-.218 1.152-.833 1.242-.461.077-1.102.038-1.41-.23-.32-.283-.448-.897-.486-1.371-.167-1.908-.167-3.842-.423-5.738-.705-5.122-4.05-8.042-9.226-8.196-.513-.013-1.038 0-1.55-.077-.808-.115-1.218-.64-1.167-1.434.039-.769.436-1.217 1.23-1.294 1.23-.115 2.486-.115 3.678-.371 4.049-.871 6.445-3.484 7.035-7.787.269-1.985.294-3.995.422-6.006C56.727.564 57.2 0 58.06 0c.845 0 1.294.55 1.358 1.537.14 2.062.18 4.136.474 6.173.718 4.905 4.023 7.76 8.982 7.966.577.025 1.154.038 1.718.102.832.102 1.217.563 1.204 1.383h.013zm-19.285-.038c2.653 1.319 4.408 3.33 5.561 6.057 1.064-2.779 2.82-4.79 5.536-6.044-2.665-1.307-4.408-3.317-5.548-6.032-1.09 2.74-2.807 4.79-5.549 6.019z" fill="#003952"/></svg>