<svg width="75" height="75" viewBox="0 0 75 75" fill="none" xmlns="http://www.w3.org/2000/svg"><path d="M56.161 14.497c-1.758.004-3.334 1.584-3.33 3.34.005 1.758 1.585 3.336 3.341 3.331 1.756-.004 3.334-1.586 3.332-3.342-.003-1.76-1.585-3.336-3.34-3.332l-.003.003z" fill="#fff"/><path d="M73.984 20.509c-.002-1.222-.065-2.46-.281-3.657C71.887 6.799 63.738.018 53.485.007c-10.99-.01-21.981-.01-32.97.011-1.22.003-2.46.06-3.656.277C6.873 2.086.032 10.26.014 20.404a5682.72 5682.72 0 00.02 33.192c.007 1.618.176 3.273.55 4.847 2.19 9.216 10.113 15.478 19.604 15.54 5.607.036 11.213.007 16.82.007 5.457 0 10.915.018 16.374-.013 1.257-.007 2.534-.058 3.769-.281 10.058-1.823 16.833-9.968 16.844-20.218.011-10.99.011-21.981-.009-32.97h-.002zm-6.679 33.613C67.296 61.308 61.3 67.294 54.102 67.3c-11.398.012-22.796.012-34.195 0-7.193-.006-13.192-6-13.205-13.176-.011-5.718 0-11.436-.002-17.152 0-5.68-.007-11.36 0-17.04.01-7.256 5.992-13.228 13.26-13.233 11.361-.009 22.721-.009 34.084 0 7.274.007 13.255 5.972 13.261 13.232.011 11.399.011 22.797 0 34.195v-.004z" fill="#fff"/><path d="M37.075 20.286c-9.148-.045-16.755 7.51-16.784 16.666-.027 9.147 7.547 16.75 16.695 16.76 9.112.006 16.661-7.492 16.728-16.615.067-9.146-7.476-16.767-16.64-16.811zm-.083 26.738c-5.573 0-10.016-4.457-10.014-10.039 0-5.575 4.452-10.014 10.039-10.012 5.58.002 10.014 4.448 10.012 10.037 0 5.575-4.454 10.016-10.037 10.014z" fill="#fff"/></svg>